<?xml version="1.0" encoding="UTF-8"?>
<svg xmlns="http://www.w3.org/2000/svg" xmlns:xlink="http://www.w3.org/1999/xlink" width="256px" height="256px" viewBox="0 0 256 256" version="1.1">
<g id="surface1">
<path style=" stroke:none;fill-rule:nonzero;fill:rgb(100%,100%,100%);fill-opacity:1;" d="M 208 32 L 184 32 L 184 24 C 184 21.878906 183.15625 19.84375 181.65625 18.34375 C 180.15625 16.84375 178.121094 16 176 16 C 173.878906 16 171.84375 16.84375 170.34375 18.34375 C 168.84375 19.84375 168 21.878906 168 24 L 168 32 L 88 32 L 88 24 C 88 21.878906 87.15625 19.84375 85.65625 18.34375 C 84.15625 16.84375 82.121094 16 80 16 C 77.878906 16 75.84375 16.84375 74.34375 18.34375 C 72.84375 19.84375 72 21.878906 72 24 L 72 32 L 48 32 C 43.757812 32 39.6875 33.6875 36.6875 36.6875 C 33.6875 39.6875 32 43.757812 32 48 L 32 208 C 32 212.242188 33.6875 216.3125 36.6875 219.3125 C 39.6875 222.3125 43.757812 224 48 224 L 208 224 C 212.242188 224 216.3125 222.3125 219.3125 219.3125 C 222.3125 216.3125 224 212.242188 224 208 L 224 48 C 224 43.757812 222.3125 39.6875 219.3125 36.6875 C 216.3125 33.6875 212.242188 32 208 32 Z M 72 48 L 72 56 C 72 58.121094 72.84375 60.15625 74.34375 61.65625 C 75.84375 63.15625 77.878906 64 80 64 C 82.121094 64 84.15625 63.15625 85.65625 61.65625 C 87.15625 60.15625 88 58.121094 88 56 L 88 48 L 168 48 L 168 56 C 168 58.121094 168.84375 60.15625 170.34375 61.65625 C 171.84375 63.15625 173.878906 64 176 64 C 178.121094 64 180.15625 63.15625 181.65625 61.65625 C 183.15625 60.15625 184 58.121094 184 56 L 184 48 L 208 48 L 208 80 L 48 80 L 48 48 Z M 208 208 L 48 208 L 48 96 L 208 96 Z M 208 208 "/>
<path style=" stroke:none;fill-rule:nonzero;fill:rgb(100%,100%,100%);fill-opacity:1;" d="M 109.867188 191.496094 C 105.046875 191.496094 101.746094 188.246094 101.746094 183.320312 L 101.746094 127.394531 L 101.421875 127.394531 L 89.996094 135.351562 C 88.480469 136.433594 87.34375 136.8125 85.664062 136.8125 C 82.363281 136.8125 79.925781 134.433594 79.925781 130.964844 C 79.925781 128.476562 80.898438 126.636719 83.445312 124.847656 L 98.929688 114.128906 C 102.71875 111.53125 105.316406 111.042969 108.675781 111.042969 C 114.46875 111.042969 117.933594 114.5625 117.933594 120.191406 L 117.933594 183.320312 C 117.933594 188.246094 114.683594 191.496094 109.867188 191.496094 Z M 109.867188 191.496094 "/>
<path style=" stroke:none;fill-rule:nonzero;fill:rgb(100%,100%,100%);fill-opacity:1;" d="M 163.140625 191.496094 C 158.320312 191.496094 155.019531 188.246094 155.019531 183.320312 L 155.019531 127.394531 L 154.695312 127.394531 L 143.269531 135.351562 C 141.753906 136.433594 140.617188 136.8125 138.9375 136.8125 C 135.636719 136.8125 133.199219 134.433594 133.199219 130.964844 C 133.199219 128.476562 134.175781 126.636719 136.71875 124.847656 L 152.203125 114.128906 C 155.992188 111.53125 158.59375 111.042969 161.949219 111.042969 C 167.742188 111.042969 171.207031 114.5625 171.207031 120.191406 L 171.207031 183.320312 C 171.207031 188.246094 167.957031 191.496094 163.140625 191.496094 Z M 163.140625 191.496094 "/>
</g>
</svg>
