<?xml version="1.0" encoding="UTF-8"?>
<svg xmlns="http://www.w3.org/2000/svg" xmlns:xlink="http://www.w3.org/1999/xlink" width="256px" height="256px" viewBox="0 0 256 256" version="1.1">
<g id="surface1">
<path d="M 208 32 L 184 32 L 184 24 C 184 21.878906 183.15625 19.84375 181.65625 18.34375 C 180.15625 16.84375 178.121094 16 176 16 C 173.878906 16 171.84375 16.84375 170.34375 18.34375 C 168.84375 19.84375 168 21.878906 168 24 L 168 32 L 88 32 L 88 24 C 88 21.878906 87.15625 19.84375 85.65625 18.34375 C 84.15625 16.84375 82.121094 16 80 16 C 77.878906 16 75.84375 16.84375 74.34375 18.34375 C 72.84375 19.84375 72 21.878906 72 24 L 72 32 L 48 32 C 43.757812 32 39.6875 33.6875 36.6875 36.6875 C 33.6875 39.6875 32 43.757812 32 48 L 32 208 C 32 212.242188 33.6875 216.3125 36.6875 219.3125 C 39.6875 222.3125 43.757812 224 48 224 L 208 224 C 212.242188 224 216.3125 222.3125 219.3125 219.3125 C 222.3125 216.3125 224 212.242188 224 208 L 224 48 C 224 43.757812 222.3125 39.6875 219.3125 36.6875 C 216.3125 33.6875 212.242188 32 208 32 Z M 72 48 L 72 56 C 72 58.121094 72.84375 60.15625 74.34375 61.65625 C 75.84375 63.15625 77.878906 64 80 64 C 82.121094 64 84.15625 63.15625 85.65625 61.65625 C 87.15625 60.15625 88 58.121094 88 56 L 88 48 L 168 48 L 168 56 C 168 58.121094 168.84375 60.15625 170.34375 61.65625 C 171.84375 63.15625 173.878906 64 176 64 C 178.121094 64 180.15625 63.15625 181.65625 61.65625 C 183.15625 60.15625 184 58.121094 184 56 L 184 48 L 208 48 L 208 80 L 48 80 L 48 48 Z M 208 208 L 48 208 L 48 96 L 208 96 Z M 208 208 "/>
<path d="M 72.910156 190.386719 C 67.765625 190.386719 65.222656 187.515625 65.222656 183.402344 C 65.222656 180.3125 66.414062 178.257812 69.714844 175.226562 L 92.996094 152.972656 C 102.632812 143.714844 105.125 139.925781 105.125 134.296875 C 105.125 127.851562 100.144531 123.25 93.160156 123.25 C 86.878906 123.25 82.546875 126.390625 79.730469 132.671875 C 77.890625 135.917969 75.996094 137.433594 72.476562 137.433594 C 68.09375 137.433594 65.492188 134.835938 65.492188 130.777344 C 65.492188 129.53125 65.710938 128.394531 66.089844 127.257812 C 68.742188 118.59375 78.542969 110.527344 93.320312 110.527344 C 109.890625 110.527344 121.042969 119.839844 121.042969 133.265625 C 121.042969 142.796875 116.386719 148.75 103.609375 160.824219 L 86.71875 177.066406 L 86.71875 177.390625 L 116.167969 177.390625 C 120.390625 177.390625 122.9375 179.9375 122.9375 183.886719 C 122.9375 187.730469 120.390625 190.386719 116.167969 190.386719 Z M 72.910156 190.386719 "/>
<path d="M 175.832031 191.523438 C 171.339844 191.523438 168.089844 188.761719 168.089844 183.5625 L 168.089844 176.039062 L 138.960938 176.039062 C 133.0625 176.039062 129.109375 172.355469 129.109375 166.886719 C 129.109375 163.53125 130.082031 160.5 132.519531 156.222656 C 137.878906 146.585938 145.675781 134.675781 154.175781 122.058594 C 159.589844 113.777344 163.542969 111.070312 170.148438 111.070312 C 178.429688 111.070312 183.628906 115.5625 183.628906 122.871094 L 183.628906 162.988281 L 188.066406 162.988281 C 192.398438 162.988281 194.78125 165.695312 194.78125 169.539062 C 194.78125 173.386719 192.34375 176.039062 188.066406 176.039062 L 183.628906 176.039062 L 183.628906 183.5625 C 183.628906 188.761719 180.324219 191.523438 175.832031 191.523438 Z M 168.414062 163.421875 L 168.414062 124.117188 L 168.089844 124.117188 C 156.9375 140.195312 149.734375 151.1875 143.402344 162.988281 L 143.402344 163.421875 Z M 168.414062 163.421875 "/>
</g>
</svg>
