<?xml version="1.0" encoding="UTF-8"?>
<svg xmlns="http://www.w3.org/2000/svg" xmlns:xlink="http://www.w3.org/1999/xlink" width="256px" height="256px" viewBox="0 0 256 256" version="1.1">
<g id="surface1">
<path style=" stroke:none;fill-rule:nonzero;fill:rgb(100%,100%,100%);fill-opacity:1;" d="M 208 32 L 184 32 L 184 24 C 184 21.878906 183.15625 19.84375 181.65625 18.34375 C 180.15625 16.84375 178.121094 16 176 16 C 173.878906 16 171.84375 16.84375 170.34375 18.34375 C 168.84375 19.84375 168 21.878906 168 24 L 168 32 L 88 32 L 88 24 C 88 21.878906 87.15625 19.84375 85.65625 18.34375 C 84.15625 16.84375 82.121094 16 80 16 C 77.878906 16 75.84375 16.84375 74.34375 18.34375 C 72.84375 19.84375 72 21.878906 72 24 L 72 32 L 48 32 C 43.757812 32 39.6875 33.6875 36.6875 36.6875 C 33.6875 39.6875 32 43.757812 32 48 L 32 208 C 32 212.242188 33.6875 216.3125 36.6875 219.3125 C 39.6875 222.3125 43.757812 224 48 224 L 208 224 C 212.242188 224 216.3125 222.3125 219.3125 219.3125 C 222.3125 216.3125 224 212.242188 224 208 L 224 48 C 224 43.757812 222.3125 39.6875 219.3125 36.6875 C 216.3125 33.6875 212.242188 32 208 32 Z M 72 48 L 72 56 C 72 58.121094 72.84375 60.15625 74.34375 61.65625 C 75.84375 63.15625 77.878906 64 80 64 C 82.121094 64 84.15625 63.15625 85.65625 61.65625 C 87.15625 60.15625 88 58.121094 88 56 L 88 48 L 168 48 L 168 56 C 168 58.121094 168.84375 60.15625 170.34375 61.65625 C 171.84375 63.15625 173.878906 64 176 64 C 178.121094 64 180.15625 63.15625 181.65625 61.65625 C 183.15625 60.15625 184 58.121094 184 56 L 184 48 L 208 48 L 208 80 L 48 80 L 48 48 Z M 208 208 L 48 208 L 48 96 L 208 96 Z M 208 208 "/>
<path style=" stroke:none;fill-rule:nonzero;fill:rgb(100%,100%,100%);fill-opacity:1;" d="M 107.167969 190.433594 C 102.023438 190.433594 99.480469 187.566406 99.480469 183.453125 C 99.480469 180.367188 100.671875 178.308594 103.972656 175.277344 L 127.253906 153.023438 C 136.890625 143.765625 139.382812 139.976562 139.382812 134.34375 C 139.382812 127.902344 134.402344 123.300781 127.417969 123.300781 C 121.136719 123.300781 116.804688 126.441406 113.992188 132.722656 C 112.148438 135.96875 110.253906 137.488281 106.734375 137.488281 C 102.347656 137.488281 99.75 134.886719 99.75 130.828125 C 99.75 129.582031 99.96875 128.445312 100.347656 127.308594 C 103 118.644531 112.800781 110.578125 127.578125 110.578125 C 144.144531 110.578125 155.300781 119.890625 155.300781 133.316406 C 155.300781 142.84375 150.644531 148.800781 137.867188 160.875 L 120.972656 177.117188 L 120.972656 177.441406 L 150.425781 177.441406 C 154.648438 177.441406 157.195312 179.988281 157.195312 183.9375 C 157.195312 187.78125 154.648438 190.433594 150.425781 190.433594 Z M 107.167969 190.433594 "/>
</g>
</svg>
