<?xml version="1.0" encoding="UTF-8"?>
<svg xmlns="http://www.w3.org/2000/svg" xmlns:xlink="http://www.w3.org/1999/xlink" width="256px" height="256px" viewBox="0 0 256 256" version="1.1">
<g id="surface1">
<path d="M 208 32 L 184 32 L 184 24 C 184 21.878906 183.15625 19.84375 181.65625 18.34375 C 180.15625 16.84375 178.121094 16 176 16 C 173.878906 16 171.84375 16.84375 170.34375 18.34375 C 168.84375 19.84375 168 21.878906 168 24 L 168 32 L 88 32 L 88 24 C 88 21.878906 87.15625 19.84375 85.65625 18.34375 C 84.15625 16.84375 82.121094 16 80 16 C 77.878906 16 75.84375 16.84375 74.34375 18.34375 C 72.84375 19.84375 72 21.878906 72 24 L 72 32 L 48 32 C 43.757812 32 39.6875 33.6875 36.6875 36.6875 C 33.6875 39.6875 32 43.757812 32 48 L 32 208 C 32 212.242188 33.6875 216.3125 36.6875 219.3125 C 39.6875 222.3125 43.757812 224 48 224 L 208 224 C 212.242188 224 216.3125 222.3125 219.3125 219.3125 C 222.3125 216.3125 224 212.242188 224 208 L 224 48 C 224 43.757812 222.3125 39.6875 219.3125 36.6875 C 216.3125 33.6875 212.242188 32 208 32 Z M 72 48 L 72 56 C 72 58.121094 72.84375 60.15625 74.34375 61.65625 C 75.84375 63.15625 77.878906 64 80 64 C 82.121094 64 84.15625 63.15625 85.65625 61.65625 C 87.15625 60.15625 88 58.121094 88 56 L 88 48 L 168 48 L 168 56 C 168 58.121094 168.84375 60.15625 170.34375 61.65625 C 171.84375 63.15625 173.878906 64 176 64 C 178.121094 64 180.15625 63.15625 181.65625 61.65625 C 183.15625 60.15625 184 58.121094 184 56 L 184 48 L 208 48 L 208 80 L 48 80 L 48 48 Z M 208 208 L 48 208 L 48 96 L 208 96 Z M 208 208 "/>
<path d="M 222.203125 217.335938 L 37.210938 217.335938 L 37.210938 85.203125 L 222.203125 85.203125 Z M 102.59375 114.703125 C 99.542969 114.703125 97.179688 115.144531 93.734375 117.507812 L 79.65625 127.25 C 77.34375 128.875 76.460938 130.546875 76.460938 132.8125 C 76.460938 135.960938 78.671875 138.125 81.671875 138.125 C 83.199219 138.125 84.230469 137.78125 85.609375 136.796875 L 96 129.5625 L 96.289062 129.5625 L 96.289062 180.40625 C 96.289062 184.882812 99.292969 187.835938 103.671875 187.835938 C 108.050781 187.835938 111.007812 184.886719 111.007812 180.40625 L 111.007812 123.015625 C 111.007812 117.898438 107.859375 114.703125 102.59375 114.703125 Z M 162.734375 114.703125 C 156.730469 114.703125 153.140625 117.160156 148.21875 124.6875 C 140.492188 136.15625 133.402344 146.988281 128.53125 155.75 C 126.316406 159.636719 125.429688 162.394531 125.429688 165.445312 C 125.429688 170.414062 129.027344 173.757812 134.390625 173.757812 L 160.867188 173.757812 L 160.867188 180.601562 C 160.867188 185.328125 163.820312 187.835938 167.90625 187.835938 C 171.992188 187.835938 174.992188 185.328125 174.992188 180.601562 L 174.992188 173.757812 L 179.03125 173.757812 C 182.917969 173.757812 185.132812 171.34375 185.132812 167.851562 C 185.132812 164.359375 182.964844 161.898438 179.03125 161.898438 L 174.992188 161.898438 L 174.992188 125.429688 C 174.992188 118.785156 170.265625 114.703125 162.734375 114.703125 Z M 161.164062 126.5625 L 161.164062 162.296875 L 138.421875 162.296875 L 138.421875 161.898438 C 144.179688 151.167969 150.730469 141.179688 160.867188 126.5625 Z M 161.164062 126.5625 "/>
</g>
</svg>
