<?xml version="1.0" encoding="UTF-8"?>
<svg xmlns="http://www.w3.org/2000/svg" xmlns:xlink="http://www.w3.org/1999/xlink" width="256px" height="256px" viewBox="0 0 256 256" version="1.1">
<g id="surface1">
<path d="M 208 32 L 184 32 L 184 24 C 184 21.878906 183.15625 19.84375 181.65625 18.34375 C 180.15625 16.84375 178.121094 16 176 16 C 173.878906 16 171.84375 16.84375 170.34375 18.34375 C 168.84375 19.84375 168 21.878906 168 24 L 168 32 L 88 32 L 88 24 C 88 21.878906 87.15625 19.84375 85.65625 18.34375 C 84.15625 16.84375 82.121094 16 80 16 C 77.878906 16 75.84375 16.84375 74.34375 18.34375 C 72.84375 19.84375 72 21.878906 72 24 L 72 32 L 48 32 C 43.757812 32 39.6875 33.6875 36.6875 36.6875 C 33.6875 39.6875 32 43.757812 32 48 L 32 208 C 32 212.242188 33.6875 216.3125 36.6875 219.3125 C 39.6875 222.3125 43.757812 224 48 224 L 208 224 C 212.242188 224 216.3125 222.3125 219.3125 219.3125 C 222.3125 216.3125 224 212.242188 224 208 L 224 48 C 224 43.757812 222.3125 39.6875 219.3125 36.6875 C 216.3125 33.6875 212.242188 32 208 32 Z M 72 48 L 72 56 C 72 58.121094 72.84375 60.15625 74.34375 61.65625 C 75.84375 63.15625 77.878906 64 80 64 C 82.121094 64 84.15625 63.15625 85.65625 61.65625 C 87.15625 60.15625 88 58.121094 88 56 L 88 48 L 168 48 L 168 56 C 168 58.121094 168.84375 60.15625 170.34375 61.65625 C 171.84375 63.15625 173.878906 64 176 64 C 178.121094 64 180.15625 63.15625 181.65625 61.65625 C 183.15625 60.15625 184 58.121094 184 56 L 184 48 L 208 48 L 208 80 L 48 80 L 48 48 Z M 208 208 L 48 208 L 48 96 L 208 96 Z M 208 208 "/>
<path d="M 213.796875 211.085938 L 45.625 211.085938 L 45.625 90.960938 L 213.796875 90.960938 Z M 170.148438 111.070312 C 163.542969 111.070312 159.59375 113.773438 154.179688 122.054688 C 145.679688 134.667969 137.882812 146.582031 132.523438 156.21875 C 130.089844 160.496094 129.109375 163.527344 129.109375 166.882812 C 129.109375 172.351562 133.0625 176.039062 138.960938 176.039062 L 168.09375 176.039062 L 168.09375 183.5625 C 168.09375 188.757812 171.34375 191.523438 175.835938 191.523438 C 180.328125 191.523438 183.632812 188.757812 183.632812 183.5625 L 183.632812 176.039062 L 188.070312 176.039062 C 192.347656 176.039062 194.78125 173.382812 194.78125 169.539062 C 194.78125 165.695312 192.402344 162.984375 188.070312 162.984375 L 183.632812 162.984375 L 183.632812 122.867188 C 183.632812 115.558594 178.429688 111.070312 170.148438 111.070312 Z M 93.320312 110.523438 C 78.542969 110.523438 68.746094 118.597656 66.09375 127.257812 C 65.714844 128.394531 65.492188 129.527344 65.492188 130.773438 C 65.492188 134.832031 68.09375 137.429688 72.476562 137.429688 C 75.996094 137.429688 77.894531 135.917969 79.734375 132.671875 C 82.550781 126.390625 86.882812 123.25 93.164062 123.25 C 100.144531 123.25 105.125 127.855469 105.125 134.296875 C 105.125 139.925781 102.632812 143.714844 93 152.96875 L 69.71875 175.226562 C 66.417969 178.257812 65.226562 180.3125 65.226562 183.398438 C 65.226562 187.511719 67.769531 190.382812 72.914062 190.382812 L 116.171875 190.382812 C 120.394531 190.382812 122.9375 187.726562 122.9375 183.882812 C 122.9375 179.933594 120.394531 177.390625 116.171875 177.390625 L 86.71875 177.390625 L 86.71875 177.0625 L 103.609375 160.820312 C 116.386719 148.746094 121.046875 142.792969 121.046875 133.265625 C 121.046875 119.839844 109.886719 110.523438 93.320312 110.523438 Z M 168.414062 124.117188 L 168.414062 163.421875 L 143.40625 163.421875 L 143.40625 162.984375 C 149.738281 151.183594 156.941406 140.195312 168.09375 124.117188 Z M 168.414062 124.117188 "/>
</g>
</svg>
