<?xml version="1.0" encoding="UTF-8"?>
<svg xmlns="http://www.w3.org/2000/svg" xmlns:xlink="http://www.w3.org/1999/xlink" width="256px" height="256px" viewBox="0 0 256 256" version="1.1">
<g id="surface1">
<path d="M 208 32 L 184 32 L 184 24 C 184 21.878906 183.15625 19.84375 181.65625 18.34375 C 180.15625 16.84375 178.121094 16 176 16 C 173.878906 16 171.84375 16.84375 170.34375 18.34375 C 168.84375 19.84375 168 21.878906 168 24 L 168 32 L 88 32 L 88 24 C 88 21.878906 87.15625 19.84375 85.65625 18.34375 C 84.15625 16.84375 82.121094 16 80 16 C 77.878906 16 75.84375 16.84375 74.34375 18.34375 C 72.84375 19.84375 72 21.878906 72 24 L 72 32 L 48 32 C 43.757812 32 39.6875 33.6875 36.6875 36.6875 C 33.6875 39.6875 32 43.757812 32 48 L 32 208 C 32 212.242188 33.6875 216.3125 36.6875 219.3125 C 39.6875 222.3125 43.757812 224 48 224 L 208 224 C 212.242188 224 216.3125 222.3125 219.3125 219.3125 C 222.3125 216.3125 224 212.242188 224 208 L 224 48 C 224 43.757812 222.3125 39.6875 219.3125 36.6875 C 216.3125 33.6875 212.242188 32 208 32 Z M 72 48 L 72 56 C 72 58.121094 72.84375 60.15625 74.34375 61.65625 C 75.84375 63.15625 77.878906 64 80 64 C 82.121094 64 84.15625 63.15625 85.65625 61.65625 C 87.15625 60.15625 88 58.121094 88 56 L 88 48 L 168 48 L 168 56 C 168 58.121094 168.84375 60.15625 170.34375 61.65625 C 171.84375 63.15625 173.878906 64 176 64 C 178.121094 64 180.15625 63.15625 181.65625 61.65625 C 183.15625 60.15625 184 58.121094 184 56 L 184 48 L 208 48 L 208 80 L 48 80 L 48 48 Z M 208 208 L 48 208 L 48 96 L 208 96 Z M 208 208 "/>
<path d="M 213.796875 216.179688 L 45.625 216.179688 L 45.625 96.0625 L 213.796875 96.0625 Z M 163.351562 110.445312 C 143.644531 110.445312 131.460938 125.929688 131.460938 151.15625 C 131.460938 176.441406 143.535156 192.085938 163.351562 192.085938 C 183.167969 192.085938 195.1875 176.332031 195.1875 151.101562 C 195.1875 125.875 183.058594 110.445312 163.351562 110.445312 Z M 93.890625 110.5 C 79.113281 110.5 69.308594 118.566406 66.65625 127.226562 C 66.277344 128.363281 66.0625 129.503906 66.0625 130.75 C 66.0625 134.808594 68.664062 137.40625 73.046875 137.40625 C 76.566406 137.40625 78.457031 135.890625 80.296875 132.640625 C 83.113281 126.359375 87.445312 123.21875 93.726562 123.21875 C 100.710938 123.21875 105.695312 127.824219 105.695312 134.265625 C 105.695312 139.894531 103.199219 143.6875 93.5625 152.945312 L 70.28125 175.195312 C 66.980469 178.226562 65.789062 180.289062 65.789062 183.375 C 65.789062 187.488281 68.335938 190.359375 73.476562 190.359375 L 116.734375 190.359375 C 120.957031 190.359375 123.507812 187.703125 123.507812 183.859375 C 123.507812 179.90625 120.957031 177.359375 116.734375 177.359375 L 87.28125 177.359375 L 87.28125 177.039062 L 104.179688 160.796875 C 116.953125 148.726562 121.609375 142.769531 121.609375 133.242188 C 121.609375 119.816406 110.457031 110.5 93.890625 110.5 Z M 163.351562 123.546875 C 172.933594 123.546875 178.5625 133.34375 178.5625 151.15625 C 178.5625 169.078125 172.988281 178.984375 163.351562 178.984375 C 153.714844 178.984375 148.085938 169.078125 148.085938 151.15625 C 148.085938 133.398438 153.824219 123.546875 163.351562 123.546875 Z M 163.351562 123.546875 "/>
</g>
</svg>
