<?xml version="1.0" encoding="UTF-8"?>
<svg xmlns="http://www.w3.org/2000/svg" xmlns:xlink="http://www.w3.org/1999/xlink" width="256px" height="256px" viewBox="0 0 256 256" version="1.1">
<g id="surface1">
<path d="M 208 32 L 184 32 L 184 24 C 184 21.878906 183.15625 19.84375 181.65625 18.34375 C 180.15625 16.84375 178.121094 16 176 16 C 173.878906 16 171.84375 16.84375 170.34375 18.34375 C 168.84375 19.84375 168 21.878906 168 24 L 168 32 L 88 32 L 88 24 C 88 21.878906 87.15625 19.84375 85.65625 18.34375 C 84.15625 16.84375 82.121094 16 80 16 C 77.878906 16 75.84375 16.84375 74.34375 18.34375 C 72.84375 19.84375 72 21.878906 72 24 L 72 32 L 48 32 C 43.757812 32 39.6875 33.6875 36.6875 36.6875 C 33.6875 39.6875 32 43.757812 32 48 L 32 208 C 32 212.242188 33.6875 216.3125 36.6875 219.3125 C 39.6875 222.3125 43.757812 224 48 224 L 208 224 C 212.242188 224 216.3125 222.3125 219.3125 219.3125 C 222.3125 216.3125 224 212.242188 224 208 L 224 48 C 224 43.757812 222.3125 39.6875 219.3125 36.6875 C 216.3125 33.6875 212.242188 32 208 32 Z M 72 48 L 72 56 C 72 58.121094 72.84375 60.15625 74.34375 61.65625 C 75.84375 63.15625 77.878906 64 80 64 C 82.121094 64 84.15625 63.15625 85.65625 61.65625 C 87.15625 60.15625 88 58.121094 88 56 L 88 48 L 168 48 L 168 56 C 168 58.121094 168.84375 60.15625 170.34375 61.65625 C 171.84375 63.15625 173.878906 64 176 64 C 178.121094 64 180.15625 63.15625 181.65625 61.65625 C 183.15625 60.15625 184 58.121094 184 56 L 184 48 L 208 48 L 208 80 L 48 80 L 48 48 Z M 208 208 L 48 208 L 48 96 L 208 96 Z M 208 208 "/>
<path d="M 213.796875 210.570312 L 45.617188 210.570312 L 45.617188 90.445312 L 213.796875 90.445312 Z M 95.695312 110.578125 C 80.914062 110.578125 71.113281 118.640625 68.460938 127.304688 C 68.082031 128.441406 67.867188 129.582031 67.867188 130.828125 C 67.867188 134.886719 70.46875 137.484375 74.851562 137.484375 C 78.371094 137.484375 80.269531 135.96875 82.109375 132.71875 C 84.925781 126.441406 89.253906 123.296875 95.53125 123.296875 C 102.515625 123.296875 107.5 127.902344 107.5 134.34375 C 107.5 139.972656 105.003906 143.765625 95.367188 153.023438 L 72.09375 175.273438 C 68.792969 178.304688 67.59375 180.367188 67.59375 183.453125 C 67.59375 187.566406 70.140625 190.4375 75.28125 190.4375 L 118.546875 190.4375 C 122.765625 190.4375 125.3125 187.78125 125.3125 183.9375 C 125.3125 179.988281 122.765625 177.4375 118.546875 177.4375 L 89.09375 177.4375 L 89.09375 177.117188 L 105.984375 160.875 C 118.761719 148.800781 123.414062 142.839844 123.414062 133.3125 C 123.410156 119.886719 112.261719 110.578125 95.695312 110.578125 Z M 162.617188 110.578125 C 147.839844 110.578125 138.035156 118.644531 135.382812 127.304688 C 135.003906 128.441406 134.789062 129.582031 134.789062 130.828125 C 134.789062 134.886719 137.382812 137.484375 141.765625 137.484375 C 145.285156 137.484375 147.183594 135.96875 149.023438 132.71875 C 151.839844 126.4375 156.171875 123.296875 162.453125 123.296875 C 169.4375 123.296875 174.414062 127.902344 174.414062 134.34375 C 174.414062 139.972656 171.925781 143.765625 162.289062 153.023438 L 139.007812 175.273438 C 135.707031 178.304688 134.515625 180.367188 134.515625 183.453125 C 134.515625 187.566406 137.0625 190.4375 142.203125 190.4375 L 185.460938 190.4375 C 189.683594 190.4375 192.226562 187.78125 192.226562 183.9375 C 192.226562 179.984375 189.683594 177.4375 185.460938 177.4375 L 156.007812 177.4375 L 156.007812 177.117188 L 172.898438 160.875 C 185.675781 148.800781 190.335938 142.839844 190.335938 133.3125 C 190.332031 119.890625 179.179688 110.578125 162.617188 110.578125 Z M 162.617188 110.578125 "/>
</g>
</svg>
