<?xml version="1.0" encoding="UTF-8"?>
<svg xmlns="http://www.w3.org/2000/svg" xmlns:xlink="http://www.w3.org/1999/xlink" width="256px" height="256px" viewBox="0 0 256 256" version="1.1">
<g id="surface1">
<path d="M 208 32 L 184 32 L 184 24 C 184 21.878906 183.15625 19.84375 181.65625 18.34375 C 180.15625 16.84375 178.121094 16 176 16 C 173.878906 16 171.84375 16.84375 170.34375 18.34375 C 168.84375 19.84375 168 21.878906 168 24 L 168 32 L 88 32 L 88 24 C 88 21.878906 87.15625 19.84375 85.65625 18.34375 C 84.15625 16.84375 82.121094 16 80 16 C 77.878906 16 75.84375 16.84375 74.34375 18.34375 C 72.84375 19.84375 72 21.878906 72 24 L 72 32 L 48 32 C 43.757812 32 39.6875 33.6875 36.6875 36.6875 C 33.6875 39.6875 32 43.757812 32 48 L 32 208 C 32 212.242188 33.6875 216.3125 36.6875 219.3125 C 39.6875 222.3125 43.757812 224 48 224 L 208 224 C 212.242188 224 216.3125 222.3125 219.3125 219.3125 C 222.3125 216.3125 224 212.242188 224 208 L 224 48 C 224 43.757812 222.3125 39.6875 219.3125 36.6875 C 216.3125 33.6875 212.242188 32 208 32 Z M 72 48 L 72 56 C 72 58.121094 72.84375 60.15625 74.34375 61.65625 C 75.84375 63.15625 77.878906 64 80 64 C 82.121094 64 84.15625 63.15625 85.65625 61.65625 C 87.15625 60.15625 88 58.121094 88 56 L 88 48 L 168 48 L 168 56 C 168 58.121094 168.84375 60.15625 170.34375 61.65625 C 171.84375 63.15625 173.878906 64 176 64 C 178.121094 64 180.15625 63.15625 181.65625 61.65625 C 183.15625 60.15625 184 58.121094 184 56 L 184 48 L 208 48 L 208 80 L 48 80 L 48 48 Z M 208 208 L 48 208 L 48 96 L 208 96 Z M 208 208 "/>
<path d="M 213.796875 211.328125 L 45.617188 211.328125 L 45.617188 91.203125 L 213.796875 91.203125 Z M 162.109375 110.445312 C 144.675781 110.445312 132.007812 121.976562 132.007812 138.164062 C 132.007812 153.375 143.484375 163.664062 157.9375 163.664062 C 168.222656 163.664062 175.917969 158.523438 178.734375 151 L 179.054688 151 L 179.054688 151.859375 C 179 168.15625 173.695312 179.148438 162.164062 179.148438 C 156.265625 179.148438 152.796875 177.039062 149.171875 172.65625 C 146.734375 169.949219 144.894531 168.484375 141.59375 168.484375 C 137.261719 168.484375 134.820312 171.246094 134.820312 174.875 C 134.820312 176.28125 135.148438 177.632812 135.90625 179.148438 C 139.15625 186.132812 148.628906 192.085938 161.570312 192.085938 C 182.304688 192.085938 194.703125 176.605469 194.703125 150.617188 C 194.703125 141.46875 193.078125 133.726562 190.101562 127.71875 C 184.417969 116.242188 174.5625 110.445312 162.109375 110.445312 Z M 94.328125 110.5 C 79.550781 110.5 69.746094 118.566406 67.09375 127.226562 C 66.714844 128.363281 66.5 129.503906 66.5 130.75 C 66.5 134.808594 69.101562 137.40625 73.484375 137.40625 C 77 137.40625 78.894531 135.886719 80.734375 132.640625 C 83.550781 126.359375 87.882812 123.21875 94.164062 123.21875 C 101.148438 123.21875 106.125 127.824219 106.125 134.265625 C 106.125 139.894531 103.636719 143.6875 94 152.945312 L 70.71875 175.195312 C 67.417969 178.226562 66.226562 180.289062 66.226562 183.375 C 66.226562 187.488281 68.773438 190.359375 73.914062 190.359375 L 117.171875 190.359375 C 121.394531 190.359375 123.9375 187.703125 123.9375 183.859375 C 123.9375 179.90625 121.394531 177.359375 117.171875 177.359375 L 87.71875 177.359375 L 87.71875 177.039062 L 104.609375 160.796875 C 117.386719 148.726562 122.046875 142.769531 122.046875 133.242188 C 122.046875 119.816406 110.894531 110.5 94.328125 110.5 Z M 162.328125 123.492188 C 170.394531 123.492188 176.671875 129.722656 176.671875 137.789062 C 176.671875 145.746094 170.445312 151.539062 162.164062 151.539062 C 153.988281 151.539062 147.921875 145.691406 147.921875 137.515625 C 147.921875 129.609375 154.261719 123.492188 162.328125 123.492188 Z M 162.328125 123.492188 "/>
</g>
</svg>
