<?xml version="1.0" encoding="UTF-8"?>
<svg xmlns="http://www.w3.org/2000/svg" xmlns:xlink="http://www.w3.org/1999/xlink" width="256px" height="256px" viewBox="0 0 256 256" version="1.1">
<g id="surface1">
<path d="M 208 32 L 184 32 L 184 24 C 184 21.878906 183.15625 19.84375 181.65625 18.34375 C 180.15625 16.84375 178.121094 16 176 16 C 173.878906 16 171.84375 16.84375 170.34375 18.34375 C 168.84375 19.84375 168 21.878906 168 24 L 168 32 L 88 32 L 88 24 C 88 21.878906 87.15625 19.84375 85.65625 18.34375 C 84.15625 16.84375 82.121094 16 80 16 C 77.878906 16 75.84375 16.84375 74.34375 18.34375 C 72.84375 19.84375 72 21.878906 72 24 L 72 32 L 48 32 C 43.757812 32 39.6875 33.6875 36.6875 36.6875 C 33.6875 39.6875 32 43.757812 32 48 L 32 208 C 32 212.242188 33.6875 216.3125 36.6875 219.3125 C 39.6875 222.3125 43.757812 224 48 224 L 208 224 C 212.242188 224 216.3125 222.3125 219.3125 219.3125 C 222.3125 216.3125 224 212.242188 224 208 L 224 48 C 224 43.757812 222.3125 39.6875 219.3125 36.6875 C 216.3125 33.6875 212.242188 32 208 32 Z M 72 48 L 72 56 C 72 58.121094 72.84375 60.15625 74.34375 61.65625 C 75.84375 63.15625 77.878906 64 80 64 C 82.121094 64 84.15625 63.15625 85.65625 61.65625 C 87.15625 60.15625 88 58.121094 88 56 L 88 48 L 168 48 L 168 56 C 168 58.121094 168.84375 60.15625 170.34375 61.65625 C 171.84375 63.15625 173.878906 64 176 64 C 178.121094 64 180.15625 63.15625 181.65625 61.65625 C 183.15625 60.15625 184 58.121094 184 56 L 184 48 L 208 48 L 208 80 L 48 80 L 48 48 Z M 208 208 L 48 208 L 48 96 L 208 96 Z M 208 208 "/>
<path d="M 213.796875 211.328125 L 45.625 211.328125 L 45.625 91.210938 L 213.796875 91.210938 Z M 156.554688 110.445312 C 136.253906 110.445312 123.914062 126.039062 123.914062 151.914062 C 123.914062 161.007812 125.539062 168.757812 128.515625 174.820312 C 134.253906 186.296875 144.105469 192.085938 156.5 192.085938 C 173.933594 192.085938 186.601562 180.554688 186.601562 164.367188 C 186.601562 149.695312 176.261719 138.921875 161.15625 138.921875 C 150.601562 138.921875 142.914062 144.230469 139.882812 151.484375 L 139.554688 151.484375 L 139.554688 150.671875 C 139.664062 134 145.347656 123.386719 156.5 123.382812 C 161.859375 123.382812 165.652344 125.390625 169.226562 129.882812 C 171.609375 132.644531 173.558594 134.046875 176.804688 134.046875 C 181.082031 134.046875 183.625 131.234375 183.625 127.609375 C 183.625 126.148438 183.25 124.734375 182.492188 123.21875 C 178.808594 115.910156 169.492188 110.445312 156.554688 110.445312 Z M 98.140625 111.039062 C 94.785156 111.039062 92.179688 111.527344 88.390625 114.125 L 72.90625 124.84375 C 70.363281 126.628906 69.390625 128.472656 69.390625 130.960938 C 69.390625 134.425781 71.832031 136.8125 75.132812 136.8125 C 76.808594 136.8125 77.945312 136.433594 79.460938 135.351562 L 90.882812 127.390625 L 91.210938 127.390625 L 91.210938 183.320312 C 91.210938 188.246094 94.511719 191.492188 99.328125 191.492188 C 104.144531 191.492188 107.398438 188.246094 107.398438 183.320312 L 107.398438 120.1875 C 107.398438 114.558594 103.933594 111.039062 98.140625 111.039062 Z M 156.445312 151 C 164.671875 151 170.6875 156.84375 170.6875 165.070312 C 170.632812 172.921875 164.300781 179.09375 156.289062 179.09375 C 148.277344 179.09375 141.992188 172.816406 141.992188 164.75 C 141.992188 156.792969 148.164062 151 156.445312 151 Z M 156.445312 151 "/>
</g>
</svg>
