<?xml version="1.0" encoding="UTF-8"?>
<svg xmlns="http://www.w3.org/2000/svg" xmlns:xlink="http://www.w3.org/1999/xlink" width="256px" height="256px" viewBox="0 0 256 256" version="1.1">
<g id="surface1">
<path style=" stroke:none;fill-rule:nonzero;fill:rgb(100%,100%,100%);fill-opacity:1;" d="M 208 32 L 184 32 L 184 24 C 184 21.878906 183.15625 19.84375 181.65625 18.34375 C 180.15625 16.84375 178.121094 16 176 16 C 173.878906 16 171.84375 16.84375 170.34375 18.34375 C 168.84375 19.84375 168 21.878906 168 24 L 168 32 L 88 32 L 88 24 C 88 21.878906 87.15625 19.84375 85.65625 18.34375 C 84.15625 16.84375 82.121094 16 80 16 C 77.878906 16 75.84375 16.84375 74.34375 18.34375 C 72.84375 19.84375 72 21.878906 72 24 L 72 32 L 48 32 C 43.757812 32 39.6875 33.6875 36.6875 36.6875 C 33.6875 39.6875 32 43.757812 32 48 L 32 208 C 32 212.242188 33.6875 216.3125 36.6875 219.3125 C 39.6875 222.3125 43.757812 224 48 224 L 208 224 C 212.242188 224 216.3125 222.3125 219.3125 219.3125 C 222.3125 216.3125 224 212.242188 224 208 L 224 48 C 224 43.757812 222.3125 39.6875 219.3125 36.6875 C 216.3125 33.6875 212.242188 32 208 32 Z M 72 48 L 72 56 C 72 58.121094 72.84375 60.15625 74.34375 61.65625 C 75.84375 63.15625 77.878906 64 80 64 C 82.121094 64 84.15625 63.15625 85.65625 61.65625 C 87.15625 60.15625 88 58.121094 88 56 L 88 48 L 168 48 L 168 56 C 168 58.121094 168.84375 60.15625 170.34375 61.65625 C 171.84375 63.15625 173.878906 64 176 64 C 178.121094 64 180.15625 63.15625 181.65625 61.65625 C 183.15625 60.15625 184 58.121094 184 56 L 184 48 L 208 48 L 208 80 L 48 80 L 48 48 Z M 208 208 L 48 208 L 48 96 L 208 96 Z M 208 208 "/>
<path style=" stroke:none;fill-rule:nonzero;fill:rgb(100%,100%,100%);fill-opacity:1;" d="M 213.792969 211.332031 L 45.621094 211.332031 L 45.621094 91.207031 L 213.792969 91.207031 Z M 134.207031 111.042969 C 127.601562 111.042969 123.644531 113.753906 118.230469 122.035156 C 109.730469 134.648438 101.933594 146.5625 96.574219 156.199219 C 94.140625 160.472656 93.167969 163.507812 93.167969 166.863281 C 93.167969 172.328125 97.121094 176.011719 103.019531 176.011719 L 132.152344 176.011719 L 132.152344 183.535156 C 132.152344 188.730469 135.394531 191.496094 139.886719 191.496094 C 144.378906 191.496094 147.683594 188.734375 147.683594 183.535156 L 147.683594 176.011719 L 152.128906 176.011719 C 156.40625 176.011719 158.839844 173.355469 158.839844 169.511719 C 158.839844 165.667969 156.457031 162.964844 152.128906 162.964844 L 147.683594 162.964844 L 147.683594 122.847656 C 147.683594 115.539062 142.488281 111.042969 134.207031 111.042969 Z M 132.472656 124.089844 L 132.472656 163.394531 L 107.457031 163.394531 L 107.457031 162.964844 C 113.792969 151.164062 121 140.167969 132.152344 124.089844 Z M 132.472656 124.089844 "/>
</g>
</svg>
