<?xml version="1.0" encoding="UTF-8"?>
<svg xmlns="http://www.w3.org/2000/svg" xmlns:xlink="http://www.w3.org/1999/xlink" width="256px" height="256px" viewBox="0 0 256 256" version="1.1">
<g id="surface1">
<path style=" stroke:none;fill-rule:nonzero;fill:rgb(100%,100%,100%);fill-opacity:1;" d="M 208 32 L 184 32 L 184 24 C 184 21.878906 183.15625 19.84375 181.65625 18.34375 C 180.15625 16.84375 178.121094 16 176 16 C 173.878906 16 171.84375 16.84375 170.34375 18.34375 C 168.84375 19.84375 168 21.878906 168 24 L 168 32 L 88 32 L 88 24 C 88 21.878906 87.15625 19.84375 85.65625 18.34375 C 84.15625 16.84375 82.121094 16 80 16 C 77.878906 16 75.84375 16.84375 74.34375 18.34375 C 72.84375 19.84375 72 21.878906 72 24 L 72 32 L 48 32 C 43.757812 32 39.6875 33.6875 36.6875 36.6875 C 33.6875 39.6875 32 43.757812 32 48 L 32 208 C 32 212.242188 33.6875 216.3125 36.6875 219.3125 C 39.6875 222.3125 43.757812 224 48 224 L 208 224 C 212.242188 224 216.3125 222.3125 219.3125 219.3125 C 222.3125 216.3125 224 212.242188 224 208 L 224 48 C 224 43.757812 222.3125 39.6875 219.3125 36.6875 C 216.3125 33.6875 212.242188 32 208 32 Z M 72 48 L 72 56 C 72 58.121094 72.84375 60.15625 74.34375 61.65625 C 75.84375 63.15625 77.878906 64 80 64 C 82.121094 64 84.15625 63.15625 85.65625 61.65625 C 87.15625 60.15625 88 58.121094 88 56 L 88 48 L 168 48 L 168 56 C 168 58.121094 168.84375 60.15625 170.34375 61.65625 C 171.84375 63.15625 173.878906 64 176 64 C 178.121094 64 180.15625 63.15625 181.65625 61.65625 C 183.15625 60.15625 184 58.121094 184 56 L 184 48 L 208 48 L 208 80 L 48 80 L 48 48 Z M 208 208 L 48 208 L 48 96 L 208 96 Z M 208 208 "/>
<path style=" stroke:none;fill-rule:nonzero;fill:rgb(100%,100%,100%);fill-opacity:1;" d="M 213.796875 212.140625 L 45.617188 212.140625 L 45.617188 92.015625 L 213.796875 92.015625 Z M 113.523438 112.148438 C 107.191406 112.148438 103.785156 114.804688 103.242188 121.40625 L 100.960938 150.046875 C 100.90625 150.316406 100.914062 150.488281 100.914062 150.703125 C 100.699219 155.085938 103.242188 158.820312 108.601562 158.820312 C 112.226562 158.820312 113.855469 158.007812 117.046875 155.03125 C 119.808594 152.378906 123.703125 150.375 128.359375 150.375 C 136.859375 150.375 142.921875 156.222656 142.921875 164.453125 C 142.921875 172.898438 136.804688 179.015625 128.304688 179.015625 C 121.269531 179.015625 116.667969 175.605469 113.851562 169.976562 C 112.011719 167.054688 109.953125 165.914062 106.703125 165.914062 C 102.480469 165.914062 99.882812 168.402344 99.882812 172.570312 C 99.882812 174.519531 100.367188 176.199219 101.179688 177.929688 C 105.078125 186.210938 115.90625 192.007812 128.304688 192.007812 C 146.117188 192.007812 158.515625 180.746094 158.515625 164.070312 C 158.515625 149.183594 147.902344 138.679688 132.960938 138.679688 C 125.003906 138.679688 118.617188 141.824219 115.421875 146.859375 L 115.09375 146.859375 L 116.9375 125.148438 L 147.796875 125.148438 C 151.910156 125.148438 154.507812 122.601562 154.507812 118.648438 C 154.507812 114.695312 151.855469 112.148438 147.796875 112.148438 Z M 113.523438 112.148438 "/>
</g>
</svg>
