<?xml version="1.0" encoding="UTF-8"?>
<svg xmlns="http://www.w3.org/2000/svg" xmlns:xlink="http://www.w3.org/1999/xlink" width="256px" height="256px" viewBox="0 0 256 256" version="1.1">
<g id="surface1">
<path d="M 208 32 L 184 32 L 184 24 C 184 21.878906 183.15625 19.84375 181.65625 18.34375 C 180.15625 16.84375 178.121094 16 176 16 C 173.878906 16 171.84375 16.84375 170.34375 18.34375 C 168.84375 19.84375 168 21.878906 168 24 L 168 32 L 88 32 L 88 24 C 88 21.878906 87.15625 19.84375 85.65625 18.34375 C 84.15625 16.84375 82.121094 16 80 16 C 77.878906 16 75.84375 16.84375 74.34375 18.34375 C 72.84375 19.84375 72 21.878906 72 24 L 72 32 L 48 32 C 43.757812 32 39.6875 33.6875 36.6875 36.6875 C 33.6875 39.6875 32 43.757812 32 48 L 32 208 C 32 212.242188 33.6875 216.3125 36.6875 219.3125 C 39.6875 222.3125 43.757812 224 48 224 L 208 224 C 212.242188 224 216.3125 222.3125 219.3125 219.3125 C 222.3125 216.3125 224 212.242188 224 208 L 224 48 C 224 43.757812 222.3125 39.6875 219.3125 36.6875 C 216.3125 33.6875 212.242188 32 208 32 Z M 72 48 L 72 56 C 72 58.121094 72.84375 60.15625 74.34375 61.65625 C 75.84375 63.15625 77.878906 64 80 64 C 82.121094 64 84.15625 63.15625 85.65625 61.65625 C 87.15625 60.15625 88 58.121094 88 56 L 88 48 L 168 48 L 168 56 C 168 58.121094 168.84375 60.15625 170.34375 61.65625 C 171.84375 63.15625 173.878906 64 176 64 C 178.121094 64 180.15625 63.15625 181.65625 61.65625 C 183.15625 60.15625 184 58.121094 184 56 L 184 48 L 208 48 L 208 80 L 48 80 L 48 48 Z M 208 208 L 48 208 L 48 96 L 208 96 Z M 208 208 "/>
<path d="M 213.796875 211.355469 L 45.625 211.355469 L 45.625 91.238281 L 213.796875 91.238281 Z M 129.328125 110.496094 C 115.523438 110.496094 106.644531 116.886719 103.179688 124.519531 C 102.367188 126.359375 101.984375 127.929688 101.984375 129.769531 C 101.984375 133.722656 104.320312 136.378906 108.867188 136.378906 C 112.546875 136.378906 114.441406 135.019531 116.226562 131.339844 C 118.769531 125.820312 122.777344 123.058594 129.382812 123.058594 C 137.289062 123.058594 141.507812 127.230469 141.507812 133.511719 C 141.503906 139.898438 136.203125 144.339844 128.03125 144.339844 L 124.835938 144.339844 C 120.882812 144.339844 118.609375 146.71875 118.609375 150.128906 C 118.609375 153.648438 120.882812 155.972656 124.835938 155.972656 L 128.25 155.972656 C 137.722656 155.972656 143.296875 160.199219 143.242188 167.777344 C 143.242188 174.273438 137.722656 178.933594 129.710938 178.933594 C 121.589844 178.933594 117.363281 175.683594 114.601562 170.214844 C 112.976562 167.238281 110.921875 165.941406 107.671875 165.941406 C 103.179688 165.941406 100.46875 168.59375 100.46875 172.816406 C 100.46875 174.441406 100.851562 176.171875 101.71875 177.957031 C 105.398438 185.644531 114.546875 192.089844 129.4375 192.089844 C 147.574219 192.089844 159.867188 182.664062 159.867188 168.480469 C 159.867188 157.707031 152.335938 150.882812 140.695312 149.800781 L 140.695312 149.480469 C 149.898438 147.585938 156.992188 141.089844 156.992188 131.183594 C 156.992188 118.675781 145.839844 110.496094 129.328125 110.496094 Z M 129.328125 110.496094 "/>
</g>
</svg>
