<?xml version="1.0" encoding="UTF-8"?>
<svg xmlns="http://www.w3.org/2000/svg" xmlns:xlink="http://www.w3.org/1999/xlink" width="256px" height="256px" viewBox="0 0 256 256" version="1.1">
<g id="surface1">
<path style=" stroke:none;fill-rule:nonzero;fill:rgb(100%,100%,100%);fill-opacity:1;" d="M 208 32 L 184 32 L 184 24 C 184 21.878906 183.15625 19.84375 181.65625 18.34375 C 180.15625 16.84375 178.121094 16 176 16 C 173.878906 16 171.84375 16.84375 170.34375 18.34375 C 168.84375 19.84375 168 21.878906 168 24 L 168 32 L 88 32 L 88 24 C 88 21.878906 87.15625 19.84375 85.65625 18.34375 C 84.15625 16.84375 82.121094 16 80 16 C 77.878906 16 75.84375 16.84375 74.34375 18.34375 C 72.84375 19.84375 72 21.878906 72 24 L 72 32 L 48 32 C 43.757812 32 39.6875 33.6875 36.6875 36.6875 C 33.6875 39.6875 32 43.757812 32 48 L 32 208 C 32 212.242188 33.6875 216.3125 36.6875 219.3125 C 39.6875 222.3125 43.757812 224 48 224 L 208 224 C 212.242188 224 216.3125 222.3125 219.3125 219.3125 C 222.3125 216.3125 224 212.242188 224 208 L 224 48 C 224 43.757812 222.3125 39.6875 219.3125 36.6875 C 216.3125 33.6875 212.242188 32 208 32 Z M 72 48 L 72 56 C 72 58.121094 72.84375 60.15625 74.34375 61.65625 C 75.84375 63.15625 77.878906 64 80 64 C 82.121094 64 84.15625 63.15625 85.65625 61.65625 C 87.15625 60.15625 88 58.121094 88 56 L 88 48 L 168 48 L 168 56 C 168 58.121094 168.84375 60.15625 170.34375 61.65625 C 171.84375 63.15625 173.878906 64 176 64 C 178.121094 64 180.15625 63.15625 181.65625 61.65625 C 183.15625 60.15625 184 58.121094 184 56 L 184 48 L 208 48 L 208 80 L 48 80 L 48 48 Z M 208 208 L 48 208 L 48 96 L 208 96 Z M 208 208 "/>
<path style=" stroke:none;fill-rule:nonzero;fill:rgb(100%,100%,100%);fill-opacity:1;" d="M 213.796875 211.359375 L 45.625 211.359375 L 45.625 91.234375 L 213.796875 91.234375 Z M 100.742188 110.5 C 86.9375 110.5 78.058594 116.890625 74.59375 124.523438 C 73.78125 126.363281 73.398438 127.933594 73.398438 129.773438 C 73.398438 133.726562 75.734375 136.375 80.28125 136.375 C 83.960938 136.375 85.855469 135.023438 87.640625 131.34375 C 90.1875 125.820312 94.191406 123.0625 100.796875 123.0625 C 108.703125 123.0625 112.921875 127.226562 112.921875 133.507812 C 112.921875 139.894531 107.621094 144.335938 99.445312 144.335938 L 96.25 144.335938 C 92.296875 144.335938 90.023438 146.722656 90.023438 150.132812 C 90.023438 153.652344 92.300781 155.976562 96.25 155.976562 L 99.65625 155.976562 C 109.132812 155.976562 114.710938 160.203125 114.65625 167.78125 C 114.65625 174.277344 109.136719 178.929688 101.125 178.929688 C 93.003906 178.929688 88.777344 175.6875 86.015625 170.21875 C 84.390625 167.242188 82.335938 165.9375 79.085938 165.9375 C 74.59375 165.9375 71.882812 168.589844 71.882812 172.8125 C 71.882812 174.4375 72.265625 176.175781 73.132812 177.960938 C 76.816406 185.648438 85.964844 192.085938 100.851562 192.085938 C 118.988281 192.085938 131.28125 182.667969 131.28125 168.484375 C 131.28125 157.710938 123.75 150.886719 112.109375 149.804688 L 112.109375 149.476562 C 121.3125 147.582031 128.40625 141.085938 128.40625 131.179688 C 128.40625 118.671875 117.253906 110.5 100.742188 110.5 Z M 168.09375 111.039062 C 164.738281 111.039062 162.140625 111.527344 158.351562 114.125 L 142.867188 124.84375 C 140.324219 126.628906 139.34375 128.472656 139.34375 130.960938 C 139.34375 134.425781 141.78125 136.8125 145.085938 136.8125 C 146.761719 136.8125 147.898438 136.433594 149.414062 135.351562 L 160.835938 127.390625 L 161.164062 127.390625 L 161.164062 183.320312 C 161.164062 188.242188 164.464844 191.492188 169.28125 191.492188 C 174.097656 191.492188 177.351562 188.246094 177.351562 183.320312 L 177.351562 120.1875 C 177.351562 114.558594 173.886719 111.039062 168.09375 111.039062 Z M 168.09375 111.039062 "/>
</g>
</svg>
