<?xml version="1.0" encoding="UTF-8"?>
<svg xmlns="http://www.w3.org/2000/svg" xmlns:xlink="http://www.w3.org/1999/xlink" width="256px" height="256px" viewBox="0 0 256 256" version="1.1">
<g id="surface1">
<path d="M 208 32 L 184 32 L 184 24 C 184 21.878906 183.15625 19.84375 181.65625 18.34375 C 180.15625 16.84375 178.121094 16 176 16 C 173.878906 16 171.84375 16.84375 170.34375 18.34375 C 168.84375 19.84375 168 21.878906 168 24 L 168 32 L 88 32 L 88 24 C 88 21.878906 87.15625 19.84375 85.65625 18.34375 C 84.15625 16.84375 82.121094 16 80 16 C 77.878906 16 75.84375 16.84375 74.34375 18.34375 C 72.84375 19.84375 72 21.878906 72 24 L 72 32 L 48 32 C 43.757812 32 39.6875 33.6875 36.6875 36.6875 C 33.6875 39.6875 32 43.757812 32 48 L 32 208 C 32 212.242188 33.6875 216.3125 36.6875 219.3125 C 39.6875 222.3125 43.757812 224 48 224 L 208 224 C 212.242188 224 216.3125 222.3125 219.3125 219.3125 C 222.3125 216.3125 224 212.242188 224 208 L 224 48 C 224 43.757812 222.3125 39.6875 219.3125 36.6875 C 216.3125 33.6875 212.242188 32 208 32 Z M 72 48 L 72 56 C 72 58.121094 72.84375 60.15625 74.34375 61.65625 C 75.84375 63.15625 77.878906 64 80 64 C 82.121094 64 84.15625 63.15625 85.65625 61.65625 C 87.15625 60.15625 88 58.121094 88 56 L 88 48 L 168 48 L 168 56 C 168 58.121094 168.84375 60.15625 170.34375 61.65625 C 171.84375 63.15625 173.878906 64 176 64 C 178.121094 64 180.15625 63.15625 181.65625 61.65625 C 183.15625 60.15625 184 58.121094 184 56 L 184 48 L 208 48 L 208 80 L 48 80 L 48 48 Z M 208 208 L 48 208 L 48 96 L 208 96 Z M 208 208 "/>
<path d="M 213.796875 211.085938 L 45.625 211.085938 L 45.625 90.960938 L 213.796875 90.960938 Z M 98.273438 111.070312 C 94.917969 111.070312 92.320312 111.558594 88.53125 114.15625 L 73.046875 124.875 C 70.503906 126.660156 69.523438 128.5 69.523438 130.992188 C 69.523438 134.457031 71.964844 136.835938 75.265625 136.835938 C 76.941406 136.835938 78.078125 136.457031 79.59375 135.375 L 91.023438 127.414062 L 91.34375 127.414062 L 91.34375 183.34375 C 91.34375 188.269531 94.652344 191.523438 99.46875 191.523438 C 104.285156 191.523438 107.53125 188.269531 107.53125 183.34375 L 107.53125 120.21875 C 107.53125 114.589844 104.066406 111.070312 98.273438 111.070312 Z M 153.117188 110.523438 C 138.335938 110.523438 128.535156 118.597656 125.882812 127.257812 C 125.503906 128.394531 125.289062 129.53125 125.289062 130.773438 C 125.289062 134.832031 127.890625 137.429688 132.273438 137.429688 C 135.792969 137.429688 137.691406 135.917969 139.53125 132.671875 C 142.347656 126.394531 146.675781 123.25 152.953125 123.25 C 159.9375 123.25 164.921875 127.855469 164.921875 134.296875 C 164.921875 139.925781 162.429688 143.714844 152.796875 152.96875 L 129.515625 175.226562 C 126.214844 178.257812 125.023438 180.3125 125.023438 183.398438 C 125.023438 187.511719 127.566406 190.382812 132.710938 190.382812 L 175.96875 190.382812 C 180.191406 190.382812 182.734375 187.726562 182.734375 183.882812 C 182.734375 179.933594 180.191406 177.390625 175.96875 177.390625 L 146.515625 177.390625 L 146.515625 177.0625 L 163.40625 160.820312 C 176.183594 148.746094 180.835938 142.792969 180.835938 133.265625 C 180.835938 119.839844 169.683594 110.523438 153.117188 110.523438 Z M 153.117188 110.523438 "/>
</g>
</svg>
