<?xml version="1.0" encoding="UTF-8"?>
<svg xmlns="http://www.w3.org/2000/svg" xmlns:xlink="http://www.w3.org/1999/xlink" width="256px" height="256px" viewBox="0 0 256 256" version="1.1">
<g id="surface1">
<path style=" stroke:none;fill-rule:nonzero;fill:rgb(100%,100%,100%);fill-opacity:1;" d="M 208 32 L 184 32 L 184 24 C 184 21.878906 183.15625 19.84375 181.65625 18.34375 C 180.15625 16.84375 178.121094 16 176 16 C 173.878906 16 171.84375 16.84375 170.34375 18.34375 C 168.84375 19.84375 168 21.878906 168 24 L 168 32 L 88 32 L 88 24 C 88 21.878906 87.15625 19.84375 85.65625 18.34375 C 84.15625 16.84375 82.121094 16 80 16 C 77.878906 16 75.84375 16.84375 74.34375 18.34375 C 72.84375 19.84375 72 21.878906 72 24 L 72 32 L 48 32 C 43.757812 32 39.6875 33.6875 36.6875 36.6875 C 33.6875 39.6875 32 43.757812 32 48 L 32 208 C 32 212.242188 33.6875 216.3125 36.6875 219.3125 C 39.6875 222.3125 43.757812 224 48 224 L 208 224 C 212.242188 224 216.3125 222.3125 219.3125 219.3125 C 222.3125 216.3125 224 212.242188 224 208 L 224 48 C 224 43.757812 222.3125 39.6875 219.3125 36.6875 C 216.3125 33.6875 212.242188 32 208 32 Z M 72 48 L 72 56 C 72 58.121094 72.84375 60.15625 74.34375 61.65625 C 75.84375 63.15625 77.878906 64 80 64 C 82.121094 64 84.15625 63.15625 85.65625 61.65625 C 87.15625 60.15625 88 58.121094 88 56 L 88 48 L 168 48 L 168 56 C 168 58.121094 168.84375 60.15625 170.34375 61.65625 C 171.84375 63.15625 173.878906 64 176 64 C 178.121094 64 180.15625 63.15625 181.65625 61.65625 C 183.15625 60.15625 184 58.121094 184 56 L 184 48 L 208 48 L 208 80 L 48 80 L 48 48 Z M 208 208 L 48 208 L 48 96 L 208 96 Z M 208 208 "/>
<path style=" stroke:none;fill-rule:nonzero;fill:rgb(100%,100%,100%);fill-opacity:1;" d="M 213.796875 211.359375 L 45.625 211.359375 L 45.625 91.234375 L 213.796875 91.234375 Z M 145.914062 112.234375 C 139.578125 112.234375 136.167969 114.886719 135.625 121.492188 L 133.351562 150.132812 C 133.296875 150.402344 133.296875 150.566406 133.296875 150.78125 C 133.082031 155.164062 135.628906 158.898438 140.984375 158.898438 C 144.609375 158.898438 146.234375 158.085938 149.429688 155.109375 C 152.191406 152.457031 156.09375 150.453125 160.75 150.453125 C 169.25 150.453125 175.3125 156.300781 175.3125 164.53125 C 175.3125 172.976562 169.195312 179.09375 160.695312 179.09375 C 153.660156 179.09375 149.058594 175.683594 146.242188 170.054688 C 144.402344 167.132812 142.339844 165.992188 139.09375 165.992188 C 134.871094 165.992188 132.273438 168.480469 132.273438 172.648438 C 132.273438 174.597656 132.757812 176.28125 133.570312 178.015625 C 137.46875 186.296875 148.300781 192.085938 160.695312 192.085938 C 178.507812 192.085938 190.90625 180.824219 190.90625 164.148438 C 190.90625 149.261719 180.292969 138.757812 165.351562 138.757812 C 157.394531 138.757812 151 141.902344 147.804688 146.9375 L 147.484375 146.9375 L 149.328125 125.226562 L 180.1875 125.226562 C 184.300781 125.226562 186.898438 122.675781 186.898438 118.726562 C 186.898438 114.777344 184.246094 112.234375 180.1875 112.234375 Z M 91.773438 110.5 C 76.992188 110.5 67.191406 118.566406 64.539062 127.226562 C 64.160156 128.363281 63.945312 129.503906 63.945312 130.75 C 63.945312 134.808594 66.546875 137.40625 70.929688 137.40625 C 74.449219 137.40625 76.339844 135.886719 78.179688 132.640625 C 80.996094 126.359375 85.328125 123.21875 91.609375 123.21875 C 98.59375 123.21875 103.578125 127.824219 103.578125 134.265625 C 103.578125 139.894531 101.082031 143.6875 91.445312 152.945312 L 68.164062 175.195312 C 64.863281 178.226562 63.671875 180.289062 63.671875 183.375 C 63.671875 187.488281 66.21875 190.359375 71.359375 190.359375 L 114.617188 190.359375 C 118.839844 190.359375 121.390625 187.703125 121.390625 183.859375 C 121.390625 179.90625 118.839844 177.359375 114.617188 177.359375 L 85.164062 177.359375 L 85.164062 177.039062 L 102.0625 160.796875 C 114.839844 148.722656 119.492188 142.761719 119.492188 133.234375 C 119.492188 119.808594 108.339844 110.5 91.773438 110.5 Z M 91.773438 110.5 "/>
</g>
</svg>
