<?xml version="1.0" encoding="UTF-8"?>
<svg xmlns="http://www.w3.org/2000/svg" xmlns:xlink="http://www.w3.org/1999/xlink" width="256px" height="256px" viewBox="0 0 256 256" version="1.1">
<g id="surface1">
<path d="M 208 32 L 184 32 L 184 24 C 184 21.878906 183.15625 19.84375 181.65625 18.34375 C 180.15625 16.84375 178.121094 16 176 16 C 173.878906 16 171.84375 16.84375 170.34375 18.34375 C 168.84375 19.84375 168 21.878906 168 24 L 168 32 L 88 32 L 88 24 C 88 21.878906 87.15625 19.84375 85.65625 18.34375 C 84.15625 16.84375 82.121094 16 80 16 C 77.878906 16 75.84375 16.84375 74.34375 18.34375 C 72.84375 19.84375 72 21.878906 72 24 L 72 32 L 48 32 C 43.757812 32 39.6875 33.6875 36.6875 36.6875 C 33.6875 39.6875 32 43.757812 32 48 L 32 208 C 32 212.242188 33.6875 216.3125 36.6875 219.3125 C 39.6875 222.3125 43.757812 224 48 224 L 208 224 C 212.242188 224 216.3125 222.3125 219.3125 219.3125 C 222.3125 216.3125 224 212.242188 224 208 L 224 48 C 224 43.757812 222.3125 39.6875 219.3125 36.6875 C 216.3125 33.6875 212.242188 32 208 32 Z M 72 48 L 72 56 C 72 58.121094 72.84375 60.15625 74.34375 61.65625 C 75.84375 63.15625 77.878906 64 80 64 C 82.121094 64 84.15625 63.15625 85.65625 61.65625 C 87.15625 60.15625 88 58.121094 88 56 L 88 48 L 168 48 L 168 56 C 168 58.121094 168.84375 60.15625 170.34375 61.65625 C 171.84375 63.15625 173.878906 64 176 64 C 178.121094 64 180.15625 63.15625 181.65625 61.65625 C 183.15625 60.15625 184 58.121094 184 56 L 184 48 L 208 48 L 208 80 L 48 80 L 48 48 Z M 208 208 L 48 208 L 48 96 L 208 96 Z M 208 208 "/>
<path d="M 213.796875 211.328125 L 45.625 211.328125 L 45.625 91.210938 L 213.796875 91.210938 Z M 161.101562 110.445312 C 140.800781 110.445312 128.460938 126.039062 128.460938 151.914062 C 128.460938 161.007812 130.085938 168.757812 133.0625 174.820312 C 138.800781 186.296875 148.652344 192.085938 161.046875 192.085938 C 178.480469 192.085938 191.15625 180.554688 191.15625 164.367188 C 191.15625 149.695312 180.808594 138.921875 165.703125 138.921875 C 155.148438 138.921875 147.460938 144.230469 144.429688 151.484375 L 144.101562 151.484375 L 144.101562 150.671875 C 144.210938 134 149.894531 123.386719 161.046875 123.382812 C 166.40625 123.382812 170.199219 125.390625 173.773438 129.882812 C 176.15625 132.644531 178.105469 134.046875 181.351562 134.046875 C 185.628906 134.046875 188.171875 131.234375 188.171875 127.609375 C 188.171875 126.148438 187.796875 124.734375 187.039062 123.21875 C 183.355469 115.910156 174.039062 110.445312 161.101562 110.445312 Z M 90.9375 110.5 C 76.160156 110.5 66.355469 118.566406 63.703125 127.226562 C 63.324219 128.363281 63.109375 129.503906 63.109375 130.75 C 63.109375 134.808594 65.710938 137.40625 70.09375 137.40625 C 73.613281 137.40625 75.511719 135.890625 77.351562 132.640625 C 80.167969 126.363281 84.496094 123.21875 90.773438 123.21875 C 97.757812 123.21875 102.742188 127.824219 102.742188 134.265625 C 102.742188 139.894531 100.253906 143.6875 90.617188 152.945312 L 67.335938 175.195312 C 64.035156 178.226562 62.835938 180.289062 62.835938 183.375 C 62.835938 187.488281 65.390625 190.359375 70.53125 190.359375 L 113.789062 190.359375 C 118.011719 190.359375 120.554688 187.703125 120.554688 183.859375 C 120.554688 179.910156 118.007812 177.359375 113.789062 177.359375 L 84.335938 177.359375 L 84.335938 177.039062 L 101.226562 160.796875 C 114 148.726562 118.65625 142.769531 118.65625 133.242188 C 118.65625 119.816406 107.503906 110.5 90.9375 110.5 Z M 161 151 C 169.226562 151 175.234375 156.84375 175.234375 165.070312 C 175.179688 172.921875 168.847656 179.09375 160.835938 179.09375 C 152.824219 179.09375 146.539062 172.816406 146.539062 164.75 C 146.539062 156.792969 152.71875 151 161 151 Z M 161 151 "/>
</g>
</svg>
