<?xml version="1.0" encoding="UTF-8"?>
<svg xmlns="http://www.w3.org/2000/svg" xmlns:xlink="http://www.w3.org/1999/xlink" width="256px" height="256px" viewBox="0 0 256 256" version="1.1">
<g id="surface1">
<path d="M 208 32 L 184 32 L 184 24 C 184 21.878906 183.15625 19.84375 181.65625 18.34375 C 180.15625 16.84375 178.121094 16 176 16 C 173.878906 16 171.84375 16.84375 170.34375 18.34375 C 168.84375 19.84375 168 21.878906 168 24 L 168 32 L 88 32 L 88 24 C 88 21.878906 87.15625 19.84375 85.65625 18.34375 C 84.15625 16.84375 82.121094 16 80 16 C 77.878906 16 75.84375 16.84375 74.34375 18.34375 C 72.84375 19.84375 72 21.878906 72 24 L 72 32 L 48 32 C 43.757812 32 39.6875 33.6875 36.6875 36.6875 C 33.6875 39.6875 32 43.757812 32 48 L 32 208 C 32 212.242188 33.6875 216.3125 36.6875 219.3125 C 39.6875 222.3125 43.757812 224 48 224 L 208 224 C 212.242188 224 216.3125 222.3125 219.3125 219.3125 C 222.3125 216.3125 224 212.242188 224 208 L 224 48 C 224 43.757812 222.3125 39.6875 219.3125 36.6875 C 216.3125 33.6875 212.242188 32 208 32 Z M 72 48 L 72 56 C 72 58.121094 72.84375 60.15625 74.34375 61.65625 C 75.84375 63.15625 77.878906 64 80 64 C 82.121094 64 84.15625 63.15625 85.65625 61.65625 C 87.15625 60.15625 88 58.121094 88 56 L 88 48 L 168 48 L 168 56 C 168 58.121094 168.84375 60.15625 170.34375 61.65625 C 171.84375 63.15625 173.878906 64 176 64 C 178.121094 64 180.15625 63.15625 181.65625 61.65625 C 183.15625 60.15625 184 58.121094 184 56 L 184 48 L 208 48 L 208 80 L 48 80 L 48 48 Z M 208 208 L 48 208 L 48 96 L 208 96 Z M 208 208 "/>
<path d="M 213.796875 211.359375 L 45.625 211.359375 L 45.625 91.234375 L 213.796875 91.234375 Z M 156.054688 110.5 C 139.109375 110.5 127.195312 119.378906 127.195312 131.507812 C 127.195312 140.003906 133.421875 146.664062 142.625 148.9375 L 142.625 149.265625 C 131.960938 151.324219 124.382812 158.902344 124.382812 169.1875 C 124.382812 182.722656 137.375 192.085938 156.054688 192.085938 C 174.679688 192.085938 187.726562 182.777344 187.726562 169.242188 C 187.726562 158.957031 180.195312 151.375 169.53125 149.265625 L 169.53125 148.9375 C 178.679688 146.609375 184.859375 139.953125 184.859375 131.5625 C 184.859375 119.328125 173 110.5 156.054688 110.5 Z M 98.554688 111.039062 C 95.199219 111.039062 92.601562 111.527344 88.8125 114.125 L 73.328125 124.84375 C 70.785156 126.628906 69.804688 128.472656 69.804688 130.960938 C 69.804688 134.425781 72.246094 136.8125 75.546875 136.8125 C 77.222656 136.8125 78.359375 136.433594 79.875 135.351562 L 91.304688 127.390625 L 91.625 127.390625 L 91.625 183.320312 C 91.625 188.246094 94.933594 191.492188 99.75 191.492188 C 104.566406 191.492188 107.8125 188.246094 107.8125 183.320312 L 107.8125 120.1875 C 107.8125 114.558594 104.347656 111.039062 98.554688 111.039062 Z M 156.054688 155.921875 C 164.660156 155.921875 170.613281 160.957031 170.617188 167.992188 C 170.617188 175.085938 164.664062 180.179688 156.054688 180.179688 C 147.445312 180.179688 141.4375 175.085938 141.4375 167.992188 C 141.4375 160.957031 147.449219 155.921875 156.054688 155.921875 Z M 156.054688 122.304688 C 163.414062 122.304688 168.726562 126.738281 168.726562 133.179688 C 168.726562 139.566406 163.417969 144.007812 156.054688 144.007812 C 148.636719 144.007812 143.382812 139.566406 143.382812 133.179688 C 143.386719 126.738281 148.640625 122.304688 156.054688 122.304688 Z M 156.054688 122.304688 "/>
</g>
</svg>
