<?xml version="1.0" encoding="UTF-8"?>
<svg xmlns="http://www.w3.org/2000/svg" xmlns:xlink="http://www.w3.org/1999/xlink" width="256px" height="256px" viewBox="0 0 256 256" version="1.1">
<g id="surface1">
<path d="M 208 32 L 184 32 L 184 24 C 184 21.878906 183.15625 19.84375 181.65625 18.34375 C 180.15625 16.84375 178.121094 16 176 16 C 173.878906 16 171.84375 16.84375 170.34375 18.34375 C 168.84375 19.84375 168 21.878906 168 24 L 168 32 L 88 32 L 88 24 C 88 21.878906 87.15625 19.84375 85.65625 18.34375 C 84.15625 16.84375 82.121094 16 80 16 C 77.878906 16 75.84375 16.84375 74.34375 18.34375 C 72.84375 19.84375 72 21.878906 72 24 L 72 32 L 48 32 C 43.757812 32 39.6875 33.6875 36.6875 36.6875 C 33.6875 39.6875 32 43.757812 32 48 L 32 208 C 32 212.242188 33.6875 216.3125 36.6875 219.3125 C 39.6875 222.3125 43.757812 224 48 224 L 208 224 C 212.242188 224 216.3125 222.3125 219.3125 219.3125 C 222.3125 216.3125 224 212.242188 224 208 L 224 48 C 224 43.757812 222.3125 39.6875 219.3125 36.6875 C 216.3125 33.6875 212.242188 32 208 32 Z M 72 48 L 72 56 C 72 58.121094 72.84375 60.15625 74.34375 61.65625 C 75.84375 63.15625 77.878906 64 80 64 C 82.121094 64 84.15625 63.15625 85.65625 61.65625 C 87.15625 60.15625 88 58.121094 88 56 L 88 48 L 168 48 L 168 56 C 168 58.121094 168.84375 60.15625 170.34375 61.65625 C 171.84375 63.15625 173.878906 64 176 64 C 178.121094 64 180.15625 63.15625 181.65625 61.65625 C 183.15625 60.15625 184 58.121094 184 56 L 184 48 L 208 48 L 208 80 L 48 80 L 48 48 Z M 208 208 L 48 208 L 48 96 L 208 96 Z M 208 208 "/>
<path d="M 213.796875 211.359375 L 45.617188 211.359375 L 45.617188 91.234375 L 213.796875 91.234375 Z M 152.625 110.5 C 138.820312 110.5 129.941406 116.890625 126.476562 124.523438 C 125.664062 126.363281 125.289062 127.933594 125.289062 129.773438 C 125.289062 133.726562 127.617188 136.375 132.164062 136.375 C 135.84375 136.375 137.738281 135.023438 139.523438 131.34375 C 142.066406 125.824219 146.074219 123.0625 152.679688 123.0625 C 160.585938 123.0625 164.8125 127.226562 164.8125 133.507812 C 164.8125 139.898438 159.503906 144.335938 151.328125 144.335938 L 148.132812 144.335938 C 144.179688 144.335938 141.90625 146.722656 141.90625 150.132812 C 141.90625 153.648438 144.183594 155.976562 148.132812 155.976562 L 151.546875 155.976562 C 161.019531 155.976562 166.59375 160.203125 166.539062 167.78125 C 166.539062 174.277344 161.019531 178.929688 153.007812 178.929688 C 144.886719 178.929688 140.660156 175.6875 137.898438 170.21875 C 136.273438 167.242188 134.21875 165.9375 130.96875 165.9375 C 126.476562 165.9375 123.773438 168.589844 123.773438 172.8125 C 123.773438 174.4375 124.148438 176.175781 125.015625 177.960938 C 128.699219 185.648438 137.847656 192.085938 152.734375 192.085938 C 170.871094 192.085938 183.164062 182.667969 183.164062 168.484375 C 183.164062 157.710938 175.636719 150.886719 164 149.804688 L 164 149.476562 C 173.203125 147.582031 180.296875 141.085938 180.296875 131.179688 C 180.296875 118.671875 169.136719 110.5 152.625 110.5 Z M 96.859375 111.039062 C 93.503906 111.039062 90.90625 111.527344 87.117188 114.125 L 71.632812 124.84375 C 69.089844 126.628906 68.117188 128.472656 68.117188 130.960938 C 68.117188 134.425781 70.550781 136.8125 73.851562 136.8125 C 75.53125 136.8125 76.671875 136.433594 78.1875 135.351562 L 89.609375 127.390625 L 89.929688 127.390625 L 89.929688 183.320312 C 89.929688 188.246094 93.238281 191.492188 98.054688 191.492188 C 102.871094 191.492188 106.117188 188.246094 106.117188 183.320312 L 106.117188 120.1875 C 106.117188 114.558594 102.652344 111.039062 96.859375 111.039062 Z M 96.859375 111.039062 "/>
</g>
</svg>
