<?xml version="1.0" encoding="UTF-8"?>
<svg xmlns="http://www.w3.org/2000/svg" xmlns:xlink="http://www.w3.org/1999/xlink" width="256px" height="256px" viewBox="0 0 256 256" version="1.1">
<g id="surface1">
<path style=" stroke:none;fill-rule:nonzero;fill:rgb(100%,100%,100%);fill-opacity:1;" d="M 208 32 L 184 32 L 184 24 C 184 21.878906 183.15625 19.84375 181.65625 18.34375 C 180.15625 16.84375 178.121094 16 176 16 C 173.878906 16 171.84375 16.84375 170.34375 18.34375 C 168.84375 19.84375 168 21.878906 168 24 L 168 32 L 88 32 L 88 24 C 88 21.878906 87.15625 19.84375 85.65625 18.34375 C 84.15625 16.84375 82.121094 16 80 16 C 77.878906 16 75.84375 16.84375 74.34375 18.34375 C 72.84375 19.84375 72 21.878906 72 24 L 72 32 L 48 32 C 43.757812 32 39.6875 33.6875 36.6875 36.6875 C 33.6875 39.6875 32 43.757812 32 48 L 32 208 C 32 212.242188 33.6875 216.3125 36.6875 219.3125 C 39.6875 222.3125 43.757812 224 48 224 L 208 224 C 212.242188 224 216.3125 222.3125 219.3125 219.3125 C 222.3125 216.3125 224 212.242188 224 208 L 224 48 C 224 43.757812 222.3125 39.6875 219.3125 36.6875 C 216.3125 33.6875 212.242188 32 208 32 Z M 72 48 L 72 56 C 72 58.121094 72.84375 60.15625 74.34375 61.65625 C 75.84375 63.15625 77.878906 64 80 64 C 82.121094 64 84.15625 63.15625 85.65625 61.65625 C 87.15625 60.15625 88 58.121094 88 56 L 88 48 L 168 48 L 168 56 C 168 58.121094 168.84375 60.15625 170.34375 61.65625 C 171.84375 63.15625 173.878906 64 176 64 C 178.121094 64 180.15625 63.15625 181.65625 61.65625 C 183.15625 60.15625 184 58.121094 184 56 L 184 48 L 208 48 L 208 80 L 48 80 L 48 48 Z M 208 208 L 48 208 L 48 96 L 208 96 Z M 208 208 "/>
<path style=" stroke:none;fill-rule:nonzero;fill:rgb(100%,100%,100%);fill-opacity:1;" d="M 71.359375 190.359375 C 66.214844 190.359375 63.671875 187.488281 63.671875 183.375 C 63.671875 180.289062 64.863281 178.230469 68.164062 175.199219 L 91.445312 152.945312 C 101.082031 143.6875 103.574219 139.898438 103.574219 134.269531 C 103.574219 127.824219 98.59375 123.222656 91.609375 123.222656 C 85.328125 123.222656 80.996094 126.363281 78.179688 132.644531 C 76.339844 135.890625 74.445312 137.40625 70.925781 137.40625 C 66.542969 137.40625 63.941406 134.808594 63.941406 130.75 C 63.941406 129.503906 64.160156 128.367188 64.539062 127.230469 C 67.191406 118.566406 76.992188 110.5 91.769531 110.5 C 108.335938 110.5 119.492188 119.8125 119.492188 133.238281 C 119.492188 142.769531 114.835938 148.722656 102.058594 160.796875 L 85.164062 177.039062 L 85.164062 177.363281 L 114.617188 177.363281 C 118.839844 177.363281 121.386719 179.90625 121.386719 183.859375 C 121.386719 187.703125 118.839844 190.359375 114.617188 190.359375 Z M 71.359375 190.359375 "/>
<path style=" stroke:none;fill-rule:nonzero;fill:rgb(100%,100%,100%);fill-opacity:1;" d="M 160.691406 192.089844 C 148.292969 192.089844 137.464844 186.296875 133.566406 178.011719 C 132.753906 176.28125 132.269531 174.601562 132.269531 172.652344 C 132.269531 168.484375 134.867188 165.996094 139.089844 165.996094 C 142.339844 165.996094 144.394531 167.132812 146.234375 170.054688 C 149.050781 175.6875 153.652344 179.097656 160.691406 179.097656 C 169.191406 179.097656 175.308594 172.976562 175.308594 164.53125 C 175.308594 156.304688 169.246094 150.457031 160.746094 150.457031 C 156.089844 150.457031 152.191406 152.460938 149.429688 155.113281 C 146.234375 158.089844 144.613281 158.902344 140.984375 158.902344 C 135.625 158.902344 133.078125 155.167969 133.296875 150.78125 C 133.296875 150.5625 133.296875 150.402344 133.351562 150.132812 L 135.625 121.492188 C 136.167969 114.886719 139.578125 112.234375 145.910156 112.234375 L 180.183594 112.234375 C 184.242188 112.234375 186.894531 114.777344 186.894531 118.730469 C 186.894531 122.679688 184.296875 125.226562 180.183594 125.226562 L 149.324219 125.226562 L 147.480469 146.9375 L 147.804688 146.9375 C 151 141.902344 157.390625 138.761719 165.347656 138.761719 C 180.289062 138.761719 190.902344 149.265625 190.902344 164.152344 C 190.902344 180.828125 178.503906 192.089844 160.691406 192.089844 Z M 160.691406 192.089844 "/>
</g>
</svg>
