<?xml version="1.0" encoding="UTF-8"?>
<svg xmlns="http://www.w3.org/2000/svg" xmlns:xlink="http://www.w3.org/1999/xlink" width="256px" height="256px" viewBox="0 0 256 256" version="1.1">
<g id="surface1">
<path style=" stroke:none;fill-rule:nonzero;fill:rgb(100%,100%,100%);fill-opacity:1;" d="M 208 32 L 184 32 L 184 24 C 184 21.878906 183.15625 19.84375 181.65625 18.34375 C 180.15625 16.84375 178.121094 16 176 16 C 173.878906 16 171.84375 16.84375 170.34375 18.34375 C 168.84375 19.84375 168 21.878906 168 24 L 168 32 L 88 32 L 88 24 C 88 21.878906 87.15625 19.84375 85.65625 18.34375 C 84.15625 16.84375 82.121094 16 80 16 C 77.878906 16 75.84375 16.84375 74.34375 18.34375 C 72.84375 19.84375 72 21.878906 72 24 L 72 32 L 48 32 C 43.757812 32 39.6875 33.6875 36.6875 36.6875 C 33.6875 39.6875 32 43.757812 32 48 L 32 208 C 32 212.242188 33.6875 216.3125 36.6875 219.3125 C 39.6875 222.3125 43.757812 224 48 224 L 208 224 C 212.242188 224 216.3125 222.3125 219.3125 219.3125 C 222.3125 216.3125 224 212.242188 224 208 L 224 48 C 224 43.757812 222.3125 39.6875 219.3125 36.6875 C 216.3125 33.6875 212.242188 32 208 32 Z M 72 48 L 72 56 C 72 58.121094 72.84375 60.15625 74.34375 61.65625 C 75.84375 63.15625 77.878906 64 80 64 C 82.121094 64 84.15625 63.15625 85.65625 61.65625 C 87.15625 60.15625 88 58.121094 88 56 L 88 48 L 168 48 L 168 56 C 168 58.121094 168.84375 60.15625 170.34375 61.65625 C 171.84375 63.15625 173.878906 64 176 64 C 178.121094 64 180.15625 63.15625 181.65625 61.65625 C 183.15625 60.15625 184 58.121094 184 56 L 184 48 L 208 48 L 208 80 L 48 80 L 48 48 Z M 208 208 L 48 208 L 48 96 L 208 96 Z M 208 208 "/>
<path style=" stroke:none;fill-rule:nonzero;fill:rgb(100%,100%,100%);fill-opacity:1;" d="M 128.386719 188.378906 C 117.117188 188.378906 107.273438 183.113281 103.726562 175.582031 C 102.988281 174.007812 102.546875 172.480469 102.546875 170.710938 C 102.546875 166.917969 104.910156 164.65625 108.75 164.65625 C 111.703125 164.65625 113.570312 165.6875 115.246094 168.347656 C 117.804688 173.464844 121.988281 176.566406 128.386719 176.566406 C 136.113281 176.566406 141.675781 171.003906 141.675781 163.328125 C 141.675781 155.84375 136.164062 150.53125 128.4375 150.53125 C 124.203125 150.53125 120.660156 152.351562 118.148438 154.761719 C 115.246094 157.46875 113.769531 158.207031 110.472656 158.207031 C 105.597656 158.207031 103.285156 154.8125 103.480469 150.824219 C 103.480469 150.628906 103.480469 150.480469 103.53125 150.234375 L 105.597656 124.199219 C 106.089844 118.191406 109.191406 115.78125 114.949219 115.78125 L 146.105469 115.78125 C 149.796875 115.78125 152.207031 118.09375 152.207031 121.6875 C 152.207031 125.28125 149.847656 127.59375 146.105469 127.59375 L 118.050781 127.59375 L 116.378906 147.332031 L 116.671875 147.332031 C 119.578125 142.753906 125.382812 139.898438 132.621094 139.898438 C 146.203125 139.898438 155.851562 149.445312 155.851562 162.980469 C 155.851562 178.140625 144.578125 188.378906 128.386719 188.378906 Z M 128.386719 188.378906 "/>
</g>
</svg>
