<?xml version="1.0" encoding="UTF-8"?>
<svg xmlns="http://www.w3.org/2000/svg" xmlns:xlink="http://www.w3.org/1999/xlink" width="256px" height="256px" viewBox="0 0 256 256" version="1.1">
<g id="surface1">
<path d="M 208 32 L 184 32 L 184 24 C 184 21.878906 183.15625 19.84375 181.65625 18.34375 C 180.15625 16.84375 178.121094 16 176 16 C 173.878906 16 171.84375 16.84375 170.34375 18.34375 C 168.84375 19.84375 168 21.878906 168 24 L 168 32 L 88 32 L 88 24 C 88 21.878906 87.15625 19.84375 85.65625 18.34375 C 84.15625 16.84375 82.121094 16 80 16 C 77.878906 16 75.84375 16.84375 74.34375 18.34375 C 72.84375 19.84375 72 21.878906 72 24 L 72 32 L 48 32 C 43.757812 32 39.6875 33.6875 36.6875 36.6875 C 33.6875 39.6875 32 43.757812 32 48 L 32 208 C 32 212.242188 33.6875 216.3125 36.6875 219.3125 C 39.6875 222.3125 43.757812 224 48 224 L 208 224 C 212.242188 224 216.3125 222.3125 219.3125 219.3125 C 222.3125 216.3125 224 212.242188 224 208 L 224 48 C 224 43.757812 222.3125 39.6875 219.3125 36.6875 C 216.3125 33.6875 212.242188 32 208 32 Z M 72 48 L 72 56 C 72 58.121094 72.84375 60.15625 74.34375 61.65625 C 75.84375 63.15625 77.878906 64 80 64 C 82.121094 64 84.15625 63.15625 85.65625 61.65625 C 87.15625 60.15625 88 58.121094 88 56 L 88 48 L 168 48 L 168 56 C 168 58.121094 168.84375 60.15625 170.34375 61.65625 C 171.84375 63.15625 173.878906 64 176 64 C 178.121094 64 180.15625 63.15625 181.65625 61.65625 C 183.15625 60.15625 184 58.121094 184 56 L 184 48 L 208 48 L 208 80 L 48 80 L 48 48 Z M 208 208 L 48 208 L 48 96 L 208 96 Z M 208 208 "/>
<path d="M 99.746094 191.496094 C 94.929688 191.496094 91.628906 188.246094 91.628906 183.320312 L 91.628906 127.390625 L 91.300781 127.390625 L 79.878906 135.351562 C 78.363281 136.433594 77.226562 136.8125 75.546875 136.8125 C 72.246094 136.8125 69.808594 134.429688 69.808594 130.964844 C 69.808594 128.472656 70.78125 126.632812 73.328125 124.847656 L 88.8125 114.128906 C 92.601562 111.527344 95.199219 111.042969 98.558594 111.042969 C 104.351562 111.042969 107.816406 114.5625 107.816406 120.191406 L 107.816406 183.320312 C 107.816406 188.246094 104.566406 191.496094 99.746094 191.496094 Z M 99.746094 191.496094 "/>
<path d="M 156.054688 192.089844 C 137.375 192.089844 124.382812 182.722656 124.382812 169.1875 C 124.382812 158.902344 131.960938 151.324219 142.628906 149.265625 L 142.628906 148.941406 C 133.425781 146.664062 127.199219 140.007812 127.199219 131.507812 C 127.199219 119.378906 139.109375 110.5 156.054688 110.5 C 173 110.5 184.859375 119.324219 184.859375 131.5625 C 184.859375 139.953125 178.6875 146.613281 169.535156 148.941406 L 169.535156 149.265625 C 180.203125 151.375 187.726562 158.957031 187.726562 169.242188 C 187.726562 182.777344 174.679688 192.089844 156.054688 192.089844 Z M 156.054688 144.011719 C 163.417969 144.011719 168.722656 139.574219 168.722656 133.183594 C 168.722656 126.742188 163.417969 122.300781 156.054688 122.300781 C 148.636719 122.300781 143.386719 126.742188 143.386719 133.183594 C 143.386719 139.574219 148.636719 144.011719 156.054688 144.011719 Z M 156.054688 180.179688 C 164.664062 180.179688 170.617188 175.089844 170.617188 167.996094 C 170.617188 160.960938 164.664062 155.925781 156.054688 155.925781 C 147.445312 155.925781 141.4375 160.960938 141.4375 167.996094 C 141.4375 175.089844 147.445312 180.179688 156.054688 180.179688 Z M 156.054688 180.179688 "/>
</g>
</svg>
