<?xml version="1.0" encoding="UTF-8"?>
<svg xmlns="http://www.w3.org/2000/svg" xmlns:xlink="http://www.w3.org/1999/xlink" width="256px" height="256px" viewBox="0 0 256 256" version="1.1">
<g id="surface1">
<path d="M 208 32 L 184 32 L 184 24 C 184 21.878906 183.15625 19.84375 181.65625 18.34375 C 180.15625 16.84375 178.121094 16 176 16 C 173.878906 16 171.84375 16.84375 170.34375 18.34375 C 168.84375 19.84375 168 21.878906 168 24 L 168 32 L 88 32 L 88 24 C 88 21.878906 87.15625 19.84375 85.65625 18.34375 C 84.15625 16.84375 82.121094 16 80 16 C 77.878906 16 75.84375 16.84375 74.34375 18.34375 C 72.84375 19.84375 72 21.878906 72 24 L 72 32 L 48 32 C 43.757812 32 39.6875 33.6875 36.6875 36.6875 C 33.6875 39.6875 32 43.757812 32 48 L 32 208 C 32 212.242188 33.6875 216.3125 36.6875 219.3125 C 39.6875 222.3125 43.757812 224 48 224 L 208 224 C 212.242188 224 216.3125 222.3125 219.3125 219.3125 C 222.3125 216.3125 224 212.242188 224 208 L 224 48 C 224 43.757812 222.3125 39.6875 219.3125 36.6875 C 216.3125 33.6875 212.242188 32 208 32 Z M 72 48 L 72 56 C 72 58.121094 72.84375 60.15625 74.34375 61.65625 C 75.84375 63.15625 77.878906 64 80 64 C 82.121094 64 84.15625 63.15625 85.65625 61.65625 C 87.15625 60.15625 88 58.121094 88 56 L 88 48 L 168 48 L 168 56 C 168 58.121094 168.84375 60.15625 170.34375 61.65625 C 171.84375 63.15625 173.878906 64 176 64 C 178.121094 64 180.15625 63.15625 181.65625 61.65625 C 183.15625 60.15625 184 58.121094 184 56 L 184 48 L 208 48 L 208 80 L 48 80 L 48 48 Z M 208 208 L 48 208 L 48 96 L 208 96 Z M 208 208 "/>
<path d="M 73.914062 190.355469 C 68.769531 190.355469 66.226562 187.488281 66.226562 183.371094 C 66.226562 180.285156 67.417969 178.230469 70.71875 175.199219 L 94 152.945312 C 103.636719 143.6875 106.128906 139.898438 106.128906 134.265625 C 106.128906 127.824219 101.148438 123.222656 94.164062 123.222656 C 87.882812 123.222656 83.550781 126.363281 80.734375 132.644531 C 78.894531 135.890625 77 137.40625 73.480469 137.40625 C 69.097656 137.40625 66.496094 134.808594 66.496094 130.746094 C 66.496094 129.503906 66.714844 128.367188 67.09375 127.230469 C 69.746094 118.566406 79.546875 110.5 94.324219 110.5 C 110.894531 110.5 122.046875 119.8125 122.046875 133.238281 C 122.046875 142.765625 117.390625 148.722656 104.613281 160.796875 L 87.71875 177.039062 L 87.71875 177.363281 L 117.171875 177.363281 C 121.394531 177.363281 123.941406 179.90625 123.941406 183.859375 C 123.941406 187.703125 121.394531 190.355469 117.171875 190.355469 Z M 73.914062 190.355469 "/>
<path d="M 161.566406 192.089844 C 148.628906 192.089844 139.152344 186.132812 135.90625 179.148438 C 135.148438 177.632812 134.824219 176.28125 134.824219 174.871094 C 134.824219 171.246094 137.257812 168.484375 141.589844 168.484375 C 144.894531 168.484375 146.734375 169.945312 149.167969 172.652344 C 152.796875 177.039062 156.261719 179.148438 162.164062 179.148438 C 173.695312 179.148438 179 168.160156 179.054688 151.863281 L 179.054688 150.996094 L 178.730469 150.996094 C 175.914062 158.523438 168.226562 163.664062 157.941406 163.664062 C 143.484375 163.664062 132.007812 153.378906 132.007812 138.164062 C 132.007812 121.976562 144.675781 110.445312 162.109375 110.445312 C 174.5625 110.445312 184.414062 116.238281 190.101562 127.714844 C 193.078125 133.726562 194.703125 141.46875 194.703125 150.617188 C 194.703125 176.605469 182.304688 192.089844 161.566406 192.089844 Z M 162.164062 151.539062 C 170.445312 151.539062 176.671875 145.746094 176.671875 137.785156 C 176.671875 129.71875 170.394531 123.492188 162.328125 123.492188 C 154.257812 123.492188 147.925781 129.609375 147.925781 137.515625 C 147.925781 145.691406 153.988281 151.539062 162.164062 151.539062 Z M 162.164062 151.539062 "/>
</g>
</svg>
