<?xml version="1.0" encoding="UTF-8"?>
<svg xmlns="http://www.w3.org/2000/svg" xmlns:xlink="http://www.w3.org/1999/xlink" width="256px" height="256px" viewBox="0 0 256 256" version="1.1">
<g id="surface1">
<path style=" stroke:none;fill-rule:nonzero;fill:rgb(100%,100%,100%);fill-opacity:1;" d="M 208 32 L 184 32 L 184 24 C 184 21.878906 183.15625 19.84375 181.65625 18.34375 C 180.15625 16.84375 178.121094 16 176 16 C 173.878906 16 171.84375 16.84375 170.34375 18.34375 C 168.84375 19.84375 168 21.878906 168 24 L 168 32 L 88 32 L 88 24 C 88 21.878906 87.15625 19.84375 85.65625 18.34375 C 84.15625 16.84375 82.121094 16 80 16 C 77.878906 16 75.84375 16.84375 74.34375 18.34375 C 72.84375 19.84375 72 21.878906 72 24 L 72 32 L 48 32 C 43.757812 32 39.6875 33.6875 36.6875 36.6875 C 33.6875 39.6875 32 43.757812 32 48 L 32 208 C 32 212.242188 33.6875 216.3125 36.6875 219.3125 C 39.6875 222.3125 43.757812 224 48 224 L 208 224 C 212.242188 224 216.3125 222.3125 219.3125 219.3125 C 222.3125 216.3125 224 212.242188 224 208 L 224 48 C 224 43.757812 222.3125 39.6875 219.3125 36.6875 C 216.3125 33.6875 212.242188 32 208 32 Z M 72 48 L 72 56 C 72 58.121094 72.84375 60.15625 74.34375 61.65625 C 75.84375 63.15625 77.878906 64 80 64 C 82.121094 64 84.15625 63.15625 85.65625 61.65625 C 87.15625 60.15625 88 58.121094 88 56 L 88 48 L 168 48 L 168 56 C 168 58.121094 168.84375 60.15625 170.34375 61.65625 C 171.84375 63.15625 173.878906 64 176 64 C 178.121094 64 180.15625 63.15625 181.65625 61.65625 C 183.15625 60.15625 184 58.121094 184 56 L 184 48 L 208 48 L 208 80 L 48 80 L 48 48 Z M 208 208 L 48 208 L 48 96 L 208 96 Z M 208 208 "/>
<path style=" stroke:none;fill-rule:nonzero;fill:rgb(100%,100%,100%);fill-opacity:1;" d="M 70.527344 190.355469 C 65.382812 190.355469 62.839844 187.488281 62.839844 183.371094 C 62.839844 180.285156 64.03125 178.230469 67.332031 175.199219 L 90.613281 152.945312 C 100.25 143.6875 102.742188 139.898438 102.742188 134.265625 C 102.742188 127.824219 97.761719 123.222656 90.777344 123.222656 C 84.496094 123.222656 80.164062 126.363281 77.347656 132.644531 C 75.507812 135.890625 73.613281 137.40625 70.09375 137.40625 C 65.710938 137.40625 63.109375 134.808594 63.109375 130.746094 C 63.109375 129.503906 63.328125 128.367188 63.707031 127.230469 C 66.359375 118.566406 76.160156 110.5 90.9375 110.5 C 107.503906 110.5 118.660156 119.8125 118.660156 133.238281 C 118.660156 142.765625 114.003906 148.722656 101.226562 160.796875 L 84.332031 177.039062 L 84.332031 177.363281 L 113.785156 177.363281 C 118.007812 177.363281 120.554688 179.90625 120.554688 183.859375 C 120.554688 187.703125 118.007812 190.355469 113.785156 190.355469 Z M 70.527344 190.355469 "/>
<path style=" stroke:none;fill-rule:nonzero;fill:rgb(100%,100%,100%);fill-opacity:1;" d="M 161.050781 192.089844 C 148.652344 192.089844 138.800781 186.296875 133.058594 174.820312 C 130.082031 168.753906 128.457031 161.011719 128.457031 151.917969 C 128.457031 126.039062 140.800781 110.445312 161.105469 110.445312 C 174.042969 110.445312 183.355469 115.914062 187.039062 123.222656 C 187.796875 124.738281 188.175781 126.144531 188.175781 127.609375 C 188.175781 131.234375 185.628906 134.050781 181.355469 134.050781 C 178.105469 134.050781 176.15625 132.644531 173.773438 129.882812 C 170.199219 125.386719 166.410156 123.386719 161.050781 123.386719 C 149.898438 123.386719 144.214844 133.996094 144.105469 150.671875 L 144.105469 151.484375 L 144.429688 151.484375 C 147.460938 144.230469 155.148438 138.921875 165.707031 138.921875 C 180.8125 138.921875 191.152344 149.699219 191.152344 164.371094 C 191.152344 180.558594 178.484375 192.089844 161.050781 192.089844 Z M 160.835938 179.097656 C 168.847656 179.097656 175.179688 172.921875 175.234375 165.074219 C 175.234375 156.84375 169.226562 150.996094 160.996094 150.996094 C 152.714844 150.996094 146.542969 156.789062 146.542969 164.746094 C 146.542969 172.816406 152.820312 179.097656 160.835938 179.097656 Z M 160.835938 179.097656 "/>
</g>
</svg>
