<?xml version="1.0" encoding="UTF-8"?>
<svg xmlns="http://www.w3.org/2000/svg" xmlns:xlink="http://www.w3.org/1999/xlink" width="256px" height="256px" viewBox="0 0 256 256" version="1.1">
<g id="surface1">
<path d="M 208 32 L 184 32 L 184 24 C 184 21.878906 183.15625 19.84375 181.65625 18.34375 C 180.15625 16.84375 178.121094 16 176 16 C 173.878906 16 171.84375 16.84375 170.34375 18.34375 C 168.84375 19.84375 168 21.878906 168 24 L 168 32 L 88 32 L 88 24 C 88 21.878906 87.15625 19.84375 85.65625 18.34375 C 84.15625 16.84375 82.121094 16 80 16 C 77.878906 16 75.84375 16.84375 74.34375 18.34375 C 72.84375 19.84375 72 21.878906 72 24 L 72 32 L 48 32 C 43.757812 32 39.6875 33.6875 36.6875 36.6875 C 33.6875 39.6875 32 43.757812 32 48 L 32 208 C 32 212.242188 33.6875 216.3125 36.6875 219.3125 C 39.6875 222.3125 43.757812 224 48 224 L 208 224 C 212.242188 224 216.3125 222.3125 219.3125 219.3125 C 222.3125 216.3125 224 212.242188 224 208 L 224 48 C 224 43.757812 222.3125 39.6875 219.3125 36.6875 C 216.3125 33.6875 212.242188 32 208 32 Z M 72 48 L 72 56 C 72 58.121094 72.84375 60.15625 74.34375 61.65625 C 75.84375 63.15625 77.878906 64 80 64 C 82.121094 64 84.15625 63.15625 85.65625 61.65625 C 87.15625 60.15625 88 58.121094 88 56 L 88 48 L 168 48 L 168 56 C 168 58.121094 168.84375 60.15625 170.34375 61.65625 C 171.84375 63.15625 173.878906 64 176 64 C 178.121094 64 180.15625 63.15625 181.65625 61.65625 C 183.15625 60.15625 184 58.121094 184 56 L 184 48 L 208 48 L 208 80 L 48 80 L 48 48 Z M 208 208 L 48 208 L 48 96 L 208 96 Z M 208 208 "/>
<path d="M 129.4375 192.089844 C 114.550781 192.089844 105.398438 185.648438 101.71875 177.960938 C 100.851562 176.171875 100.472656 174.441406 100.472656 172.816406 C 100.472656 168.59375 103.179688 165.941406 107.671875 165.941406 C 110.921875 165.941406 112.980469 167.238281 114.601562 170.21875 C 117.363281 175.6875 121.585938 178.933594 129.707031 178.933594 C 137.722656 178.933594 143.242188 174.277344 143.242188 167.78125 C 143.296875 160.199219 137.722656 155.976562 128.246094 155.976562 L 124.835938 155.976562 C 120.882812 155.976562 118.609375 153.652344 118.609375 150.132812 C 118.609375 146.71875 120.882812 144.335938 124.835938 144.335938 L 128.03125 144.335938 C 136.207031 144.335938 141.511719 139.898438 141.511719 133.507812 C 141.511719 127.230469 137.289062 123.0625 129.382812 123.0625 C 122.777344 123.0625 118.773438 125.820312 116.226562 131.34375 C 114.441406 135.027344 112.546875 136.378906 108.863281 136.378906 C 104.316406 136.378906 101.988281 133.726562 101.988281 129.773438 C 101.988281 127.933594 102.367188 126.363281 103.179688 124.523438 C 106.644531 116.890625 115.523438 110.5 129.328125 110.5 C 145.84375 110.5 156.996094 118.675781 156.996094 131.179688 C 156.996094 141.089844 149.902344 147.585938 140.699219 149.480469 L 140.699219 149.804688 C 152.339844 150.890625 159.863281 157.710938 159.863281 168.484375 C 159.863281 182.667969 147.574219 192.089844 129.4375 192.089844 Z M 129.4375 192.089844 "/>
</g>
</svg>
