<?xml version="1.0" encoding="UTF-8"?>
<svg xmlns="http://www.w3.org/2000/svg" xmlns:xlink="http://www.w3.org/1999/xlink" width="256px" height="256px" viewBox="0 0 256 256" version="1.1">
<g id="surface1">
<path d="M 208 32 L 184 32 L 184 24 C 184 21.878906 183.15625 19.84375 181.65625 18.34375 C 180.15625 16.84375 178.121094 16 176 16 C 173.878906 16 171.84375 16.84375 170.34375 18.34375 C 168.84375 19.84375 168 21.878906 168 24 L 168 32 L 88 32 L 88 24 C 88 21.878906 87.15625 19.84375 85.65625 18.34375 C 84.15625 16.84375 82.121094 16 80 16 C 77.878906 16 75.84375 16.84375 74.34375 18.34375 C 72.84375 19.84375 72 21.878906 72 24 L 72 32 L 48 32 C 43.757812 32 39.6875 33.6875 36.6875 36.6875 C 33.6875 39.6875 32 43.757812 32 48 L 32 208 C 32 212.242188 33.6875 216.3125 36.6875 219.3125 C 39.6875 222.3125 43.757812 224 48 224 L 208 224 C 212.242188 224 216.3125 222.3125 219.3125 219.3125 C 222.3125 216.3125 224 212.242188 224 208 L 224 48 C 224 43.757812 222.3125 39.6875 219.3125 36.6875 C 216.3125 33.6875 212.242188 32 208 32 Z M 72 48 L 72 56 C 72 58.121094 72.84375 60.15625 74.34375 61.65625 C 75.84375 63.15625 77.878906 64 80 64 C 82.121094 64 84.15625 63.15625 85.65625 61.65625 C 87.15625 60.15625 88 58.121094 88 56 L 88 48 L 168 48 L 168 56 C 168 58.121094 168.84375 60.15625 170.34375 61.65625 C 171.84375 63.15625 173.878906 64 176 64 C 178.121094 64 180.15625 63.15625 181.65625 61.65625 C 183.15625 60.15625 184 58.121094 184 56 L 184 48 L 208 48 L 208 80 L 48 80 L 48 48 Z M 208 208 L 48 208 L 48 96 L 208 96 Z M 208 208 "/>
<path d="M 74.789062 190.359375 C 69.644531 190.359375 67.101562 187.488281 67.101562 183.375 C 67.101562 180.289062 68.292969 178.230469 71.59375 175.199219 L 94.875 152.945312 C 104.511719 143.6875 107.003906 139.898438 107.003906 134.269531 C 107.003906 127.824219 102.023438 123.222656 95.039062 123.222656 C 88.757812 123.222656 84.425781 126.363281 81.609375 132.644531 C 79.769531 135.890625 77.875 137.40625 74.355469 137.40625 C 69.972656 137.40625 67.371094 134.808594 67.371094 130.75 C 67.371094 129.503906 67.589844 128.367188 67.96875 127.230469 C 70.621094 118.566406 80.421875 110.5 95.199219 110.5 C 111.765625 110.5 122.921875 119.8125 122.921875 133.238281 C 122.921875 142.769531 118.265625 148.722656 105.488281 160.796875 L 88.59375 177.039062 L 88.59375 177.363281 L 118.046875 177.363281 C 122.269531 177.363281 124.816406 179.90625 124.816406 183.859375 C 124.816406 187.703125 122.269531 190.359375 118.046875 190.359375 Z M 74.789062 190.359375 "/>
<path d="M 163.148438 192.089844 C 148.257812 192.089844 139.109375 185.648438 135.425781 177.960938 C 134.5625 176.171875 134.179688 174.441406 134.179688 172.816406 C 134.179688 168.59375 136.890625 165.941406 141.382812 165.941406 C 144.632812 165.941406 146.6875 167.238281 148.3125 170.21875 C 151.074219 175.6875 155.296875 178.933594 163.417969 178.933594 C 171.429688 178.933594 176.953125 174.277344 176.953125 167.78125 C 177.007812 160.199219 171.429688 155.976562 161.957031 155.976562 L 158.542969 155.976562 C 154.59375 155.976562 152.320312 153.652344 152.320312 150.132812 C 152.320312 146.71875 154.59375 144.335938 158.542969 144.335938 L 161.738281 144.335938 C 169.914062 144.335938 175.21875 139.898438 175.21875 133.507812 C 175.21875 127.230469 170.996094 123.0625 163.09375 123.0625 C 156.488281 123.0625 152.480469 125.820312 149.9375 131.34375 C 148.152344 135.027344 146.253906 136.378906 142.574219 136.378906 C 138.027344 136.378906 135.699219 133.726562 135.699219 129.773438 C 135.699219 127.933594 136.078125 126.363281 136.890625 124.523438 C 140.355469 116.890625 149.234375 110.5 163.039062 110.5 C 179.550781 110.5 190.703125 118.675781 190.703125 131.179688 C 190.703125 141.089844 183.613281 147.585938 174.40625 149.480469 L 174.40625 149.804688 C 186.046875 150.890625 193.574219 157.710938 193.574219 168.484375 C 193.574219 182.667969 181.285156 192.089844 163.148438 192.089844 Z M 163.148438 192.089844 "/>
</g>
</svg>
