<?xml version="1.0" encoding="UTF-8"?>
<svg xmlns="http://www.w3.org/2000/svg" xmlns:xlink="http://www.w3.org/1999/xlink" width="256px" height="256px" viewBox="0 0 256 256" version="1.1">
<g id="surface1">
<path d="M 208 32 L 184 32 L 184 24 C 184 21.878906 183.15625 19.84375 181.65625 18.34375 C 180.15625 16.84375 178.121094 16 176 16 C 173.878906 16 171.84375 16.84375 170.34375 18.34375 C 168.84375 19.84375 168 21.878906 168 24 L 168 32 L 88 32 L 88 24 C 88 21.878906 87.15625 19.84375 85.65625 18.34375 C 84.15625 16.84375 82.121094 16 80 16 C 77.878906 16 75.84375 16.84375 74.34375 18.34375 C 72.84375 19.84375 72 21.878906 72 24 L 72 32 L 48 32 C 43.757812 32 39.6875 33.6875 36.6875 36.6875 C 33.6875 39.6875 32 43.757812 32 48 L 32 208 C 32 212.242188 33.6875 216.3125 36.6875 219.3125 C 39.6875 222.3125 43.757812 224 48 224 L 208 224 C 212.242188 224 216.3125 222.3125 219.3125 219.3125 C 222.3125 216.3125 224 212.242188 224 208 L 224 48 C 224 43.757812 222.3125 39.6875 219.3125 36.6875 C 216.3125 33.6875 212.242188 32 208 32 Z M 72 48 L 72 56 C 72 58.121094 72.84375 60.15625 74.34375 61.65625 C 75.84375 63.15625 77.878906 64 80 64 C 82.121094 64 84.15625 63.15625 85.65625 61.65625 C 87.15625 60.15625 88 58.121094 88 56 L 88 48 L 168 48 L 168 56 C 168 58.121094 168.84375 60.15625 170.34375 61.65625 C 171.84375 63.15625 173.878906 64 176 64 C 178.121094 64 180.15625 63.15625 181.65625 61.65625 C 183.15625 60.15625 184 58.121094 184 56 L 184 48 L 208 48 L 208 80 L 48 80 L 48 48 Z M 208 208 L 48 208 L 48 96 L 208 96 Z M 208 208 "/>
<path d="M 128 192.089844 C 109.320312 192.089844 96.328125 182.722656 96.328125 169.1875 C 96.328125 158.902344 103.90625 151.324219 114.574219 149.265625 L 114.574219 148.941406 C 105.371094 146.664062 99.144531 140.007812 99.144531 131.507812 C 99.144531 119.378906 111.054688 110.5 128 110.5 C 144.945312 110.5 156.804688 119.324219 156.804688 131.5625 C 156.804688 139.953125 150.632812 146.613281 141.480469 148.941406 L 141.480469 149.265625 C 152.148438 151.375 159.671875 158.957031 159.671875 169.242188 C 159.671875 182.777344 146.625 192.089844 128 192.089844 Z M 128 144.011719 C 135.363281 144.011719 140.667969 139.574219 140.667969 133.183594 C 140.667969 126.742188 135.363281 122.300781 128 122.300781 C 120.582031 122.300781 115.332031 126.742188 115.332031 133.183594 C 115.332031 139.574219 120.582031 144.011719 128 144.011719 Z M 128 180.179688 C 136.609375 180.179688 142.5625 175.089844 142.5625 167.996094 C 142.5625 160.960938 136.609375 155.925781 128 155.925781 C 119.390625 155.925781 113.382812 160.960938 113.382812 167.996094 C 113.382812 175.089844 119.390625 180.179688 128 180.179688 Z M 128 180.179688 "/>
</g>
</svg>
