<?xml version="1.0" encoding="UTF-8"?>
<svg xmlns="http://www.w3.org/2000/svg" xmlns:xlink="http://www.w3.org/1999/xlink" width="256px" height="256px" viewBox="0 0 256 256" version="1.1">
<g id="surface1">
<path d="M 208 32 L 184 32 L 184 24 C 184 21.878906 183.15625 19.84375 181.65625 18.34375 C 180.15625 16.84375 178.121094 16 176 16 C 173.878906 16 171.84375 16.84375 170.34375 18.34375 C 168.84375 19.84375 168 21.878906 168 24 L 168 32 L 88 32 L 88 24 C 88 21.878906 87.15625 19.84375 85.65625 18.34375 C 84.15625 16.84375 82.121094 16 80 16 C 77.878906 16 75.84375 16.84375 74.34375 18.34375 C 72.84375 19.84375 72 21.878906 72 24 L 72 32 L 48 32 C 43.757812 32 39.6875 33.6875 36.6875 36.6875 C 33.6875 39.6875 32 43.757812 32 48 L 32 208 C 32 212.242188 33.6875 216.3125 36.6875 219.3125 C 39.6875 222.3125 43.757812 224 48 224 L 208 224 C 212.242188 224 216.3125 222.3125 219.3125 219.3125 C 222.3125 216.3125 224 212.242188 224 208 L 224 48 C 224 43.757812 222.3125 39.6875 219.3125 36.6875 C 216.3125 33.6875 212.242188 32 208 32 Z M 72 48 L 72 56 C 72 58.121094 72.84375 60.15625 74.34375 61.65625 C 75.84375 63.15625 77.878906 64 80 64 C 82.121094 64 84.15625 63.15625 85.65625 61.65625 C 87.15625 60.15625 88 58.121094 88 56 L 88 48 L 168 48 L 168 56 C 168 58.121094 168.84375 60.15625 170.34375 61.65625 C 171.84375 63.15625 173.878906 64 176 64 C 178.121094 64 180.15625 63.15625 181.65625 61.65625 C 183.15625 60.15625 184 58.121094 184 56 L 184 48 L 208 48 L 208 80 L 48 80 L 48 48 Z M 208 208 L 48 208 L 48 96 L 208 96 Z M 208 208 "/>
<path d="M 100.851562 192.089844 C 85.964844 192.089844 76.8125 185.648438 73.132812 177.960938 C 72.265625 176.171875 71.886719 174.441406 71.886719 172.816406 C 71.886719 168.59375 74.59375 165.941406 79.085938 165.941406 C 82.335938 165.941406 84.394531 167.238281 86.019531 170.21875 C 88.777344 175.6875 93 178.933594 101.121094 178.933594 C 109.136719 178.933594 114.65625 174.277344 114.65625 167.78125 C 114.710938 160.199219 109.136719 155.976562 99.660156 155.976562 L 96.25 155.976562 C 92.296875 155.976562 90.023438 153.652344 90.023438 150.132812 C 90.023438 146.71875 92.296875 144.335938 96.25 144.335938 L 99.445312 144.335938 C 107.621094 144.335938 112.925781 139.898438 112.925781 133.507812 C 112.925781 127.230469 108.703125 123.0625 100.796875 123.0625 C 94.191406 123.0625 90.1875 125.820312 87.640625 131.34375 C 85.855469 135.027344 83.960938 136.378906 80.277344 136.378906 C 75.730469 136.378906 73.402344 133.726562 73.402344 129.773438 C 73.402344 127.933594 73.78125 126.363281 74.59375 124.523438 C 78.058594 116.890625 86.9375 110.5 100.742188 110.5 C 117.257812 110.5 128.410156 118.675781 128.410156 131.179688 C 128.410156 141.089844 121.316406 147.585938 112.113281 149.480469 L 112.113281 149.804688 C 123.753906 150.890625 131.277344 157.710938 131.277344 168.484375 C 131.277344 182.667969 118.988281 192.089844 100.851562 192.089844 Z M 100.851562 192.089844 "/>
<path d="M 169.285156 191.496094 C 164.46875 191.496094 161.164062 188.246094 161.164062 183.320312 L 161.164062 127.390625 L 160.839844 127.390625 L 149.414062 135.351562 C 147.898438 136.433594 146.761719 136.8125 145.085938 136.8125 C 141.78125 136.8125 139.34375 134.429688 139.34375 130.964844 C 139.34375 128.472656 140.320312 126.632812 142.863281 124.847656 L 158.347656 114.128906 C 162.140625 111.527344 164.738281 111.042969 168.09375 111.042969 C 173.886719 111.042969 177.351562 114.5625 177.351562 120.191406 L 177.351562 183.320312 C 177.351562 188.246094 174.105469 191.496094 169.285156 191.496094 Z M 169.285156 191.496094 "/>
</g>
</svg>
