<?xml version="1.0" encoding="UTF-8"?>
<svg xmlns="http://www.w3.org/2000/svg" xmlns:xlink="http://www.w3.org/1999/xlink" width="256px" height="256px" viewBox="0 0 256 256" version="1.1">
<g id="surface1">
<path style=" stroke:none;fill-rule:nonzero;fill:rgb(100%,100%,100%);fill-opacity:1;" d="M 208 32 L 184 32 L 184 24 C 184 21.878906 183.15625 19.84375 181.65625 18.34375 C 180.15625 16.84375 178.121094 16 176 16 C 173.878906 16 171.84375 16.84375 170.34375 18.34375 C 168.84375 19.84375 168 21.878906 168 24 L 168 32 L 88 32 L 88 24 C 88 21.878906 87.15625 19.84375 85.65625 18.34375 C 84.15625 16.84375 82.121094 16 80 16 C 77.878906 16 75.84375 16.84375 74.34375 18.34375 C 72.84375 19.84375 72 21.878906 72 24 L 72 32 L 48 32 C 43.757812 32 39.6875 33.6875 36.6875 36.6875 C 33.6875 39.6875 32 43.757812 32 48 L 32 208 C 32 212.242188 33.6875 216.3125 36.6875 219.3125 C 39.6875 222.3125 43.757812 224 48 224 L 208 224 C 212.242188 224 216.3125 222.3125 219.3125 219.3125 C 222.3125 216.3125 224 212.242188 224 208 L 224 48 C 224 43.757812 222.3125 39.6875 219.3125 36.6875 C 216.3125 33.6875 212.242188 32 208 32 Z M 72 48 L 72 56 C 72 58.121094 72.84375 60.15625 74.34375 61.65625 C 75.84375 63.15625 77.878906 64 80 64 C 82.121094 64 84.15625 63.15625 85.65625 61.65625 C 87.15625 60.15625 88 58.121094 88 56 L 88 48 L 168 48 L 168 56 C 168 58.121094 168.84375 60.15625 170.34375 61.65625 C 171.84375 63.15625 173.878906 64 176 64 C 178.121094 64 180.15625 63.15625 181.65625 61.65625 C 183.15625 60.15625 184 58.121094 184 56 L 184 48 L 208 48 L 208 80 L 48 80 L 48 48 Z M 208 208 L 48 208 L 48 96 L 208 96 Z M 208 208 "/>
<path style=" stroke:none;fill-rule:nonzero;fill:rgb(100%,100%,100%);fill-opacity:1;" d="M 131.523438 192.089844 C 119.125 192.089844 109.269531 186.296875 103.53125 174.820312 C 100.554688 168.753906 98.929688 161.011719 98.929688 151.917969 C 98.929688 126.039062 111.273438 110.445312 131.578125 110.445312 C 144.515625 110.445312 153.828125 115.914062 157.507812 123.222656 C 158.269531 124.738281 158.644531 126.144531 158.644531 127.609375 C 158.644531 131.234375 156.101562 134.050781 151.824219 134.050781 C 148.578125 134.050781 146.628906 132.644531 144.246094 129.882812 C 140.671875 125.386719 136.882812 123.386719 131.523438 123.386719 C 120.371094 123.386719 114.683594 133.996094 114.574219 150.671875 L 114.574219 151.484375 L 114.902344 151.484375 C 117.933594 144.230469 125.621094 138.921875 136.179688 138.921875 C 151.285156 138.921875 161.625 149.699219 161.625 164.371094 C 161.625 180.558594 148.957031 192.089844 131.523438 192.089844 Z M 131.304688 179.097656 C 139.320312 179.097656 145.652344 172.921875 145.707031 165.074219 C 145.707031 156.84375 139.699219 150.996094 131.46875 150.996094 C 123.183594 150.996094 117.011719 156.789062 117.011719 164.746094 C 117.011719 172.816406 123.292969 179.097656 131.304688 179.097656 Z M 131.304688 179.097656 "/>
</g>
</svg>
