<?xml version="1.0" encoding="UTF-8"?>
<svg xmlns="http://www.w3.org/2000/svg" xmlns:xlink="http://www.w3.org/1999/xlink" width="256px" height="256px" viewBox="0 0 256 256" version="1.1">
<g id="surface1">
<path d="M 208 32 L 184 32 L 184 24 C 184 21.878906 183.15625 19.84375 181.65625 18.34375 C 180.15625 16.84375 178.121094 16 176 16 C 173.878906 16 171.84375 16.84375 170.34375 18.34375 C 168.84375 19.84375 168 21.878906 168 24 L 168 32 L 88 32 L 88 24 C 88 21.878906 87.15625 19.84375 85.65625 18.34375 C 84.15625 16.84375 82.121094 16 80 16 C 77.878906 16 75.84375 16.84375 74.34375 18.34375 C 72.84375 19.84375 72 21.878906 72 24 L 72 32 L 48 32 C 43.757812 32 39.6875 33.6875 36.6875 36.6875 C 33.6875 39.6875 32 43.757812 32 48 L 32 208 C 32 212.242188 33.6875 216.3125 36.6875 219.3125 C 39.6875 222.3125 43.757812 224 48 224 L 208 224 C 212.242188 224 216.3125 222.3125 219.3125 219.3125 C 222.3125 216.3125 224 212.242188 224 208 L 224 48 C 224 43.757812 222.3125 39.6875 219.3125 36.6875 C 216.3125 33.6875 212.242188 32 208 32 Z M 72 48 L 72 56 C 72 58.121094 72.84375 60.15625 74.34375 61.65625 C 75.84375 63.15625 77.878906 64 80 64 C 82.121094 64 84.15625 63.15625 85.65625 61.65625 C 87.15625 60.15625 88 58.121094 88 56 L 88 48 L 168 48 L 168 56 C 168 58.121094 168.84375 60.15625 170.34375 61.65625 C 171.84375 63.15625 173.878906 64 176 64 C 178.121094 64 180.15625 63.15625 181.65625 61.65625 C 183.15625 60.15625 184 58.121094 184 56 L 184 48 L 208 48 L 208 80 L 48 80 L 48 48 Z M 208 208 L 48 208 L 48 96 L 208 96 Z M 208 208 "/>
<path d="M 73.476562 190.355469 C 68.332031 190.355469 65.789062 187.488281 65.789062 183.371094 C 65.789062 180.285156 66.980469 178.230469 70.28125 175.199219 L 93.5625 152.945312 C 103.199219 143.6875 105.691406 139.898438 105.691406 134.265625 C 105.691406 127.824219 100.710938 123.222656 93.726562 123.222656 C 87.445312 123.222656 83.113281 126.363281 80.296875 132.644531 C 78.457031 135.890625 76.5625 137.40625 73.042969 137.40625 C 68.660156 137.40625 66.058594 134.808594 66.058594 130.746094 C 66.058594 129.503906 66.277344 128.367188 66.65625 127.230469 C 69.308594 118.566406 79.109375 110.5 93.886719 110.5 C 110.457031 110.5 121.609375 119.8125 121.609375 133.238281 C 121.609375 142.765625 116.953125 148.722656 104.175781 160.796875 L 87.28125 177.039062 L 87.28125 177.363281 L 116.734375 177.363281 C 120.957031 177.363281 123.503906 179.90625 123.503906 183.859375 C 123.503906 187.703125 120.957031 190.355469 116.734375 190.355469 Z M 73.476562 190.355469 "/>
<path d="M 163.351562 192.089844 C 143.535156 192.089844 131.460938 176.441406 131.460938 151.160156 C 131.460938 125.929688 143.644531 110.445312 163.351562 110.445312 C 183.058594 110.445312 195.183594 125.875 195.183594 151.105469 C 195.183594 176.335938 183.164062 192.089844 163.351562 192.089844 Z M 163.351562 178.988281 C 172.988281 178.988281 178.5625 169.078125 178.5625 151.160156 C 178.5625 133.347656 172.933594 123.546875 163.351562 123.546875 C 153.820312 123.546875 148.082031 133.402344 148.082031 151.160156 C 148.082031 169.078125 153.714844 178.988281 163.351562 178.988281 Z M 163.351562 178.988281 "/>
</g>
</svg>
