<?xml version="1.0" encoding="UTF-8"?>
<svg xmlns="http://www.w3.org/2000/svg" xmlns:xlink="http://www.w3.org/1999/xlink" width="256px" height="256px" viewBox="0 0 256 256" version="1.1">
<g id="surface1">
<path d="M 208 32 L 184 32 L 184 24 C 184 21.878906 183.15625 19.84375 181.65625 18.34375 C 180.15625 16.84375 178.121094 16 176 16 C 173.878906 16 171.84375 16.84375 170.34375 18.34375 C 168.84375 19.84375 168 21.878906 168 24 L 168 32 L 88 32 L 88 24 C 88 21.878906 87.15625 19.84375 85.65625 18.34375 C 84.15625 16.84375 82.121094 16 80 16 C 77.878906 16 75.84375 16.84375 74.34375 18.34375 C 72.84375 19.84375 72 21.878906 72 24 L 72 32 L 48 32 C 43.757812 32 39.6875 33.6875 36.6875 36.6875 C 33.6875 39.6875 32 43.757812 32 48 L 32 208 C 32 212.242188 33.6875 216.3125 36.6875 219.3125 C 39.6875 222.3125 43.757812 224 48 224 L 208 224 C 212.242188 224 216.3125 222.3125 219.3125 219.3125 C 222.3125 216.3125 224 212.242188 224 208 L 224 48 C 224 43.757812 222.3125 39.6875 219.3125 36.6875 C 216.3125 33.6875 212.242188 32 208 32 Z M 72 48 L 72 56 C 72 58.121094 72.84375 60.15625 74.34375 61.65625 C 75.84375 63.15625 77.878906 64 80 64 C 82.121094 64 84.15625 63.15625 85.65625 61.65625 C 87.15625 60.15625 88 58.121094 88 56 L 88 48 L 168 48 L 168 56 C 168 58.121094 168.84375 60.15625 170.34375 61.65625 C 171.84375 63.15625 173.878906 64 176 64 C 178.121094 64 180.15625 63.15625 181.65625 61.65625 C 183.15625 60.15625 184 58.121094 184 56 L 184 48 L 208 48 L 208 80 L 48 80 L 48 48 Z M 208 208 L 48 208 L 48 96 L 208 96 Z M 208 208 "/>
<path d="M 98.054688 191.496094 C 93.234375 191.496094 89.933594 188.246094 89.933594 183.320312 L 89.933594 127.390625 L 89.605469 127.390625 L 78.183594 135.351562 C 76.667969 136.433594 75.53125 136.8125 73.851562 136.8125 C 70.550781 136.8125 68.113281 134.429688 68.113281 130.964844 C 68.113281 128.472656 69.085938 126.632812 71.632812 124.847656 L 87.117188 114.128906 C 90.90625 111.527344 93.503906 111.042969 96.863281 111.042969 C 102.65625 111.042969 106.121094 114.5625 106.121094 120.191406 L 106.121094 183.320312 C 106.121094 188.246094 102.871094 191.496094 98.054688 191.496094 Z M 98.054688 191.496094 "/>
<path d="M 152.734375 192.089844 C 137.847656 192.089844 128.695312 185.648438 125.015625 177.960938 C 124.148438 176.171875 123.769531 174.441406 123.769531 172.816406 C 123.769531 168.59375 126.476562 165.941406 130.96875 165.941406 C 134.21875 165.941406 136.277344 167.238281 137.902344 170.21875 C 140.660156 175.6875 144.886719 178.933594 153.003906 178.933594 C 161.019531 178.933594 166.539062 174.277344 166.539062 167.78125 C 166.59375 160.199219 161.019531 155.976562 151.542969 155.976562 L 148.132812 155.976562 C 144.179688 155.976562 141.90625 153.652344 141.90625 150.132812 C 141.90625 146.71875 144.179688 144.335938 148.132812 144.335938 L 151.328125 144.335938 C 159.503906 144.335938 164.808594 139.898438 164.808594 133.507812 C 164.808594 127.230469 160.585938 123.0625 152.679688 123.0625 C 146.074219 123.0625 142.070312 125.820312 139.523438 131.34375 C 137.738281 135.027344 135.84375 136.378906 132.160156 136.378906 C 127.613281 136.378906 125.285156 133.726562 125.285156 129.773438 C 125.285156 127.933594 125.664062 126.363281 126.476562 124.523438 C 129.941406 116.890625 138.820312 110.5 152.628906 110.5 C 169.140625 110.5 180.292969 118.675781 180.292969 131.179688 C 180.292969 141.089844 173.199219 147.585938 163.996094 149.480469 L 163.996094 149.804688 C 175.636719 150.890625 183.164062 157.710938 183.164062 168.484375 C 183.164062 182.667969 170.871094 192.089844 152.734375 192.089844 Z M 152.734375 192.089844 "/>
</g>
</svg>
