<?xml version="1.0" encoding="UTF-8"?>
<svg xmlns="http://www.w3.org/2000/svg" xmlns:xlink="http://www.w3.org/1999/xlink" width="256px" height="256px" viewBox="0 0 256 256" version="1.1">
<g id="surface1">
<path style=" stroke:none;fill-rule:nonzero;fill:rgb(100%,100%,100%);fill-opacity:1;" d="M 208 32 L 184 32 L 184 24 C 184 21.878906 183.15625 19.84375 181.65625 18.34375 C 180.15625 16.84375 178.121094 16 176 16 C 173.878906 16 171.84375 16.84375 170.34375 18.34375 C 168.84375 19.84375 168 21.878906 168 24 L 168 32 L 88 32 L 88 24 C 88 21.878906 87.15625 19.84375 85.65625 18.34375 C 84.15625 16.84375 82.121094 16 80 16 C 77.878906 16 75.84375 16.84375 74.34375 18.34375 C 72.84375 19.84375 72 21.878906 72 24 L 72 32 L 48 32 C 43.757812 32 39.6875 33.6875 36.6875 36.6875 C 33.6875 39.6875 32 43.757812 32 48 L 32 208 C 32 212.242188 33.6875 216.3125 36.6875 219.3125 C 39.6875 222.3125 43.757812 224 48 224 L 208 224 C 212.242188 224 216.3125 222.3125 219.3125 219.3125 C 222.3125 216.3125 224 212.242188 224 208 L 224 48 C 224 43.757812 222.3125 39.6875 219.3125 36.6875 C 216.3125 33.6875 212.242188 32 208 32 Z M 72 48 L 72 56 C 72 58.121094 72.84375 60.15625 74.34375 61.65625 C 75.84375 63.15625 77.878906 64 80 64 C 82.121094 64 84.15625 63.15625 85.65625 61.65625 C 87.15625 60.15625 88 58.121094 88 56 L 88 48 L 168 48 L 168 56 C 168 58.121094 168.84375 60.15625 170.34375 61.65625 C 171.84375 63.15625 173.878906 64 176 64 C 178.121094 64 180.15625 63.15625 181.65625 61.65625 C 183.15625 60.15625 184 58.121094 184 56 L 184 48 L 208 48 L 208 80 L 48 80 L 48 48 Z M 208 208 L 48 208 L 48 96 L 208 96 Z M 208 208 "/>
<path style=" stroke:none;fill-rule:nonzero;fill:rgb(100%,100%,100%);fill-opacity:1;" d="M 99.578125 191.492188 C 94.757812 191.492188 91.457031 188.246094 91.457031 183.320312 L 91.457031 127.390625 L 91.128906 127.390625 L 79.707031 135.347656 C 78.191406 136.433594 77.054688 136.8125 75.375 136.8125 C 72.074219 136.8125 69.636719 134.429688 69.636719 130.964844 C 69.636719 128.472656 70.609375 126.632812 73.15625 124.847656 L 88.640625 114.128906 C 92.429688 111.527344 95.027344 111.039062 98.386719 111.039062 C 104.179688 111.039062 107.644531 114.558594 107.644531 120.191406 L 107.644531 183.320312 C 107.644531 188.246094 104.394531 191.492188 99.578125 191.492188 Z M 99.578125 191.492188 "/>
<path style=" stroke:none;fill-rule:nonzero;fill:rgb(100%,100%,100%);fill-opacity:1;" d="M 153.230469 192.089844 C 140.289062 192.089844 130.816406 186.132812 127.566406 179.148438 C 126.808594 177.632812 126.484375 176.28125 126.484375 174.871094 C 126.484375 171.246094 128.921875 168.484375 133.253906 168.484375 C 136.554688 168.484375 138.394531 169.945312 140.832031 172.652344 C 144.460938 177.039062 147.925781 179.148438 153.824219 179.148438 C 165.359375 179.148438 170.664062 168.160156 170.71875 151.863281 L 170.71875 150.996094 L 170.394531 150.996094 C 167.578125 158.523438 159.890625 163.664062 149.601562 163.664062 C 135.148438 163.664062 123.667969 153.378906 123.667969 138.164062 C 123.667969 121.976562 136.335938 110.445312 153.769531 110.445312 C 166.222656 110.445312 176.078125 116.238281 181.761719 127.714844 C 184.738281 133.726562 186.363281 141.46875 186.363281 150.617188 C 186.363281 176.605469 173.964844 192.089844 153.230469 192.089844 Z M 153.824219 151.539062 C 162.109375 151.539062 168.335938 145.746094 168.335938 137.785156 C 168.335938 129.71875 162.054688 123.492188 153.988281 123.492188 C 145.921875 123.492188 139.585938 129.609375 139.585938 137.515625 C 139.585938 145.691406 145.652344 151.539062 153.824219 151.539062 Z M 153.824219 151.539062 "/>
</g>
</svg>
