<?xml version="1.0" encoding="UTF-8"?>
<svg xmlns="http://www.w3.org/2000/svg" xmlns:xlink="http://www.w3.org/1999/xlink" width="256px" height="256px" viewBox="0 0 256 256" version="1.1">
<g id="surface1">
<path d="M 208 32 L 184 32 L 184 24 C 184 21.878906 183.15625 19.84375 181.65625 18.34375 C 180.15625 16.84375 178.121094 16 176 16 C 173.878906 16 171.84375 16.84375 170.34375 18.34375 C 168.84375 19.84375 168 21.878906 168 24 L 168 32 L 88 32 L 88 24 C 88 21.878906 87.15625 19.84375 85.65625 18.34375 C 84.15625 16.84375 82.121094 16 80 16 C 77.878906 16 75.84375 16.84375 74.34375 18.34375 C 72.84375 19.84375 72 21.878906 72 24 L 72 32 L 48 32 C 43.757812 32 39.6875 33.6875 36.6875 36.6875 C 33.6875 39.6875 32 43.757812 32 48 L 32 208 C 32 212.242188 33.6875 216.3125 36.6875 219.3125 C 39.6875 222.3125 43.757812 224 48 224 L 208 224 C 212.242188 224 216.3125 222.3125 219.3125 219.3125 C 222.3125 216.3125 224 212.242188 224 208 L 224 48 C 224 43.757812 222.3125 39.6875 219.3125 36.6875 C 216.3125 33.6875 212.242188 32 208 32 Z M 72 48 L 72 56 C 72 58.121094 72.84375 60.15625 74.34375 61.65625 C 75.84375 63.15625 77.878906 64 80 64 C 82.121094 64 84.15625 63.15625 85.65625 61.65625 C 87.15625 60.15625 88 58.121094 88 56 L 88 48 L 168 48 L 168 56 C 168 58.121094 168.84375 60.15625 170.34375 61.65625 C 171.84375 63.15625 173.878906 64 176 64 C 178.121094 64 180.15625 63.15625 181.65625 61.65625 C 183.15625 60.15625 184 58.121094 184 56 L 184 48 L 208 48 L 208 80 L 48 80 L 48 48 Z M 208 208 L 48 208 L 48 96 L 208 96 Z M 208 208 "/>
<path d="M 100.964844 191.496094 C 96.144531 191.496094 92.84375 188.246094 92.84375 183.320312 L 92.84375 127.394531 L 92.519531 127.394531 L 81.09375 135.351562 C 79.578125 136.433594 78.441406 136.8125 76.761719 136.8125 C 73.460938 136.8125 71.023438 134.433594 71.023438 130.964844 C 71.023438 128.476562 71.996094 126.636719 74.542969 124.847656 L 90.027344 114.128906 C 93.816406 111.53125 96.414062 111.042969 99.773438 111.042969 C 105.566406 111.042969 109.03125 114.5625 109.03125 120.191406 L 109.03125 183.320312 C 109.03125 188.246094 105.78125 191.496094 100.964844 191.496094 Z M 100.964844 191.496094 "/>
<path d="M 171.617188 191.496094 C 167.125 191.496094 163.875 188.734375 163.875 183.539062 L 163.875 176.011719 L 134.746094 176.011719 C 128.84375 176.011719 124.894531 172.332031 124.894531 166.863281 C 124.894531 163.503906 125.867188 160.472656 128.304688 156.195312 C 133.664062 146.558594 141.460938 134.648438 149.960938 122.035156 C 155.375 113.75 159.328125 111.042969 165.933594 111.042969 C 174.214844 111.042969 179.414062 115.535156 179.414062 122.84375 L 179.414062 162.964844 L 183.851562 162.964844 C 188.183594 162.964844 190.566406 165.671875 190.566406 169.515625 C 190.566406 173.359375 188.128906 176.011719 183.851562 176.011719 L 179.414062 176.011719 L 179.414062 183.539062 C 179.414062 188.734375 176.109375 191.496094 171.617188 191.496094 Z M 164.199219 163.398438 L 164.199219 124.089844 L 163.875 124.089844 C 152.722656 140.171875 145.519531 151.160156 139.1875 162.964844 L 139.1875 163.398438 Z M 164.199219 163.398438 "/>
</g>
</svg>
