<?xml version="1.0" encoding="UTF-8"?>
<svg xmlns="http://www.w3.org/2000/svg" xmlns:xlink="http://www.w3.org/1999/xlink" width="256px" height="256px" viewBox="0 0 256 256" version="1.1">
<g id="surface1">
<path style=" stroke:none;fill-rule:nonzero;fill:rgb(100%,100%,100%);fill-opacity:1;" d="M 208 32 L 184 32 L 184 24 C 184 21.878906 183.15625 19.84375 181.65625 18.34375 C 180.15625 16.84375 178.121094 16 176 16 C 173.878906 16 171.84375 16.84375 170.34375 18.34375 C 168.84375 19.84375 168 21.878906 168 24 L 168 32 L 88 32 L 88 24 C 88 21.878906 87.15625 19.84375 85.65625 18.34375 C 84.15625 16.84375 82.121094 16 80 16 C 77.878906 16 75.84375 16.84375 74.34375 18.34375 C 72.84375 19.84375 72 21.878906 72 24 L 72 32 L 48 32 C 43.757812 32 39.6875 33.6875 36.6875 36.6875 C 33.6875 39.6875 32 43.757812 32 48 L 32 208 C 32 212.242188 33.6875 216.3125 36.6875 219.3125 C 39.6875 222.3125 43.757812 224 48 224 L 208 224 C 212.242188 224 216.3125 222.3125 219.3125 219.3125 C 222.3125 216.3125 224 212.242188 224 208 L 224 48 C 224 43.757812 222.3125 39.6875 219.3125 36.6875 C 216.3125 33.6875 212.242188 32 208 32 Z M 72 48 L 72 56 C 72 58.121094 72.84375 60.15625 74.34375 61.65625 C 75.84375 63.15625 77.878906 64 80 64 C 82.121094 64 84.15625 63.15625 85.65625 61.65625 C 87.15625 60.15625 88 58.121094 88 56 L 88 48 L 168 48 L 168 56 C 168 58.121094 168.84375 60.15625 170.34375 61.65625 C 171.84375 63.15625 173.878906 64 176 64 C 178.121094 64 180.15625 63.15625 181.65625 61.65625 C 183.15625 60.15625 184 58.121094 184 56 L 184 48 L 208 48 L 208 80 L 48 80 L 48 48 Z M 208 208 L 48 208 L 48 96 L 208 96 Z M 208 208 "/>
<path style=" stroke:none;fill-rule:nonzero;fill:rgb(100%,100%,100%);fill-opacity:1;" d="M 99.46875 191.523438 C 94.648438 191.523438 91.347656 188.273438 91.347656 183.347656 L 91.347656 127.417969 L 91.019531 127.417969 L 79.597656 135.378906 C 78.082031 136.460938 76.945312 136.839844 75.265625 136.839844 C 71.964844 136.839844 69.527344 134.457031 69.527344 130.992188 C 69.527344 128.503906 70.5 126.660156 73.046875 124.875 L 88.53125 114.15625 C 92.320312 111.554688 94.917969 111.070312 98.277344 111.070312 C 104.070312 111.070312 107.535156 114.589844 107.535156 120.21875 L 107.535156 183.347656 C 107.535156 188.273438 104.285156 191.523438 99.46875 191.523438 Z M 99.46875 191.523438 "/>
<path style=" stroke:none;fill-rule:nonzero;fill:rgb(100%,100%,100%);fill-opacity:1;" d="M 132.710938 190.386719 C 127.566406 190.386719 125.023438 187.515625 125.023438 183.402344 C 125.023438 180.3125 126.210938 178.257812 129.515625 175.226562 L 152.796875 152.972656 C 162.433594 143.714844 164.921875 139.925781 164.921875 134.296875 C 164.921875 127.851562 159.941406 123.25 152.957031 123.25 C 146.675781 123.25 142.347656 126.390625 139.53125 132.671875 C 137.691406 135.917969 135.796875 137.433594 132.277344 137.433594 C 127.890625 137.433594 125.292969 134.835938 125.292969 130.777344 C 125.292969 129.53125 125.507812 128.394531 125.886719 127.257812 C 128.539062 118.59375 138.339844 110.527344 153.121094 110.527344 C 169.6875 110.527344 180.839844 119.839844 180.839844 133.265625 C 180.839844 142.796875 176.183594 148.75 163.40625 160.824219 L 146.515625 177.066406 L 146.515625 177.390625 L 175.96875 177.390625 C 180.191406 177.390625 182.734375 179.9375 182.734375 183.886719 C 182.734375 187.730469 180.191406 190.386719 175.96875 190.386719 Z M 132.710938 190.386719 "/>
</g>
</svg>
