<?xml version="1.0" encoding="UTF-8"?>
<svg xmlns="http://www.w3.org/2000/svg" xmlns:xlink="http://www.w3.org/1999/xlink" width="256px" height="256px" viewBox="0 0 256 256" version="1.1">
<g id="surface1">
<path d="M 208 32 L 184 32 L 184 24 C 184 21.878906 183.15625 19.84375 181.65625 18.34375 C 180.15625 16.84375 178.121094 16 176 16 C 173.878906 16 171.84375 16.84375 170.34375 18.34375 C 168.84375 19.84375 168 21.878906 168 24 L 168 32 L 88 32 L 88 24 C 88 21.878906 87.15625 19.84375 85.65625 18.34375 C 84.15625 16.84375 82.121094 16 80 16 C 77.878906 16 75.84375 16.84375 74.34375 18.34375 C 72.84375 19.84375 72 21.878906 72 24 L 72 32 L 48 32 C 43.757812 32 39.6875 33.6875 36.6875 36.6875 C 33.6875 39.6875 32 43.757812 32 48 L 32 208 C 32 212.242188 33.6875 216.3125 36.6875 219.3125 C 39.6875 222.3125 43.757812 224 48 224 L 208 224 C 212.242188 224 216.3125 222.3125 219.3125 219.3125 C 222.3125 216.3125 224 212.242188 224 208 L 224 48 C 224 43.757812 222.3125 39.6875 219.3125 36.6875 C 216.3125 33.6875 212.242188 32 208 32 Z M 72 48 L 72 56 C 72 58.121094 72.84375 60.15625 74.34375 61.65625 C 75.84375 63.15625 77.878906 64 80 64 C 82.121094 64 84.15625 63.15625 85.65625 61.65625 C 87.15625 60.15625 88 58.121094 88 56 L 88 48 L 168 48 L 168 56 C 168 58.121094 168.84375 60.15625 170.34375 61.65625 C 171.84375 63.15625 173.878906 64 176 64 C 178.121094 64 180.15625 63.15625 181.65625 61.65625 C 183.15625 60.15625 184 58.121094 184 56 L 184 48 L 208 48 L 208 80 L 48 80 L 48 48 Z M 208 208 L 48 208 L 48 96 L 208 96 Z M 208 208 "/>
<path d="M 71.988281 190.359375 C 66.84375 190.359375 64.300781 187.488281 64.300781 183.375 C 64.300781 180.289062 65.492188 178.230469 68.792969 175.199219 L 92.074219 152.945312 C 101.710938 143.6875 104.203125 139.898438 104.203125 134.269531 C 104.203125 127.824219 99.222656 123.222656 92.238281 123.222656 C 85.957031 123.222656 81.625 126.363281 78.808594 132.644531 C 76.96875 135.890625 75.074219 137.40625 71.554688 137.40625 C 67.171875 137.40625 64.570312 134.808594 64.570312 130.75 C 64.570312 129.503906 64.789062 128.367188 65.167969 127.230469 C 67.820312 118.566406 77.621094 110.5 92.398438 110.5 C 108.964844 110.5 120.121094 119.8125 120.121094 133.238281 C 120.121094 142.769531 115.464844 148.722656 102.6875 160.796875 L 85.792969 177.039062 L 85.792969 177.363281 L 115.246094 177.363281 C 119.46875 177.363281 122.015625 179.90625 122.015625 183.859375 C 122.015625 187.703125 119.46875 190.359375 115.246094 190.359375 Z M 71.988281 190.359375 "/>
<path d="M 161.96875 192.089844 C 143.292969 192.089844 130.296875 182.722656 130.296875 169.1875 C 130.296875 158.902344 137.878906 151.324219 148.542969 149.265625 L 148.542969 148.941406 C 139.339844 146.664062 133.113281 140.007812 133.113281 131.507812 C 133.113281 119.378906 145.023438 110.5 161.96875 110.5 C 178.917969 110.5 190.773438 119.324219 190.773438 131.5625 C 190.773438 139.953125 184.601562 146.613281 175.453125 148.941406 L 175.453125 149.265625 C 186.117188 151.375 193.640625 158.957031 193.640625 169.242188 C 193.640625 182.777344 180.59375 192.089844 161.96875 192.089844 Z M 161.96875 144.011719 C 169.332031 144.011719 174.640625 139.574219 174.640625 133.183594 C 174.640625 126.742188 169.332031 122.300781 161.96875 122.300781 C 154.554688 122.300781 149.300781 126.742188 149.300781 133.183594 C 149.300781 139.574219 154.554688 144.011719 161.96875 144.011719 Z M 161.96875 180.179688 C 170.578125 180.179688 176.535156 175.089844 176.535156 167.996094 C 176.535156 160.960938 170.578125 155.925781 161.96875 155.925781 C 153.363281 155.925781 147.351562 160.960938 147.351562 167.996094 C 147.351562 175.089844 153.363281 180.179688 161.96875 180.179688 Z M 161.96875 180.179688 "/>
</g>
</svg>
